<svg width="41" height="41" viewBox="0 0 41 41" fill="none" xmlns="http://www.w3.org/2000/svg">
<g id="open-book 1" clip-path="url(#clip0_613_7636)">
<g id="Group">
<path id="Vector" opacity="0.994" fill-rule="evenodd" clip-rule="evenodd" d="M5.8857 4.76472C9.27589 4.65806 12.4524 5.4188 15.415 7.04695C17.0375 8.0822 18.3321 9.43015 19.2988 11.0909C19.3522 18.9385 19.3522 26.7862 19.2988 34.6339C16.4643 31.8759 13.0609 30.3144 9.08883 29.9493C7.99468 29.8662 6.90028 29.7862 5.80563 29.7091C5.40322 29.5738 5.09625 29.3202 4.88473 28.9483C4.75184 21.2386 4.72515 13.5245 4.80465 5.80574C4.99819 5.27841 5.35854 4.9314 5.8857 4.76472Z" fill="white"/>
</g>
<g id="Group_2">
<path id="Vector_2" opacity="0.994" fill-rule="evenodd" clip-rule="evenodd" d="M33.2725 4.76458C33.9465 4.73209 34.6139 4.77213 35.2744 4.88469C35.6954 5.06537 35.9757 5.37234 36.1153 5.80559C36.1948 13.5243 36.168 21.2385 36.0352 28.9482C35.8237 29.3201 35.5167 29.5737 35.1143 29.7089C32.3696 29.7304 29.7004 30.1842 27.1065 31.0702C25.0034 31.8474 23.1749 33.0352 21.6211 34.6337C21.5677 26.7861 21.5677 18.9384 21.6211 11.0907C23.3426 8.25935 25.8116 6.4042 29.0283 5.52532C30.4328 5.14902 31.8476 4.89543 33.2725 4.76458Z" fill="white"/>
</g>
<g id="Group_3">
<path id="Vector_3" opacity="0.978" fill-rule="evenodd" clip-rule="evenodd" d="M-0.0400391 35.1143C-0.0400391 27.0265 -0.0400391 18.9386 -0.0400391 10.8507C0.186411 10.2692 0.613495 9.93562 1.24121 9.8497C1.66746 9.80974 2.09455 9.79637 2.52246 9.80966C2.50911 16.0558 2.52246 22.3019 2.5625 28.5479C2.85302 30.5692 4.01416 31.7036 6.0459 31.9513C9.2089 31.9146 12.1985 32.6086 15.0146 34.0333C15.8569 34.5283 16.631 35.1155 17.3369 35.795C13.3585 35.0111 9.35457 34.9044 5.3252 35.4747C4.02674 35.681 2.73215 35.9079 1.44141 36.1554C0.710078 36.1295 0.216263 35.7824 -0.0400391 35.1143Z" fill="white"/>
</g>
<g id="Group_4">
<path id="Vector_4" opacity="0.978" fill-rule="evenodd" clip-rule="evenodd" d="M40.96 10.8506C40.96 18.9385 40.96 27.0264 40.96 35.1143C40.7036 35.7823 40.2099 36.1294 39.4785 36.1553C35.7198 35.3064 31.9161 34.9728 28.0674 35.1543C26.5521 35.2655 25.0572 35.479 23.583 35.7949C25.7178 33.8538 28.2269 32.6793 31.1104 32.2715C32.3576 32.0808 33.6121 31.974 34.874 31.9512C36.9058 31.7035 38.0669 30.5691 38.3574 28.5479C38.3975 22.3018 38.4108 16.0557 38.3975 9.80957C39.025 9.76697 39.6389 9.83367 40.2393 10.0098C40.5837 10.2074 40.8239 10.4877 40.96 10.8506Z" fill="white"/>
</g>
</g>
<defs>
<clipPath id="clip0_613_7636">
<rect width="41" height="41" fill="white"/>
</clipPath>
</defs>
</svg>
