<svg width="41" height="41" viewBox="0 0 41 41" fill="none" xmlns="http://www.w3.org/2000/svg">
<g id="chef (1) 1" clip-path="url(#clip0_613_7582)">
<g id="Group">
<path id="Vector" opacity="0.991" fill-rule="evenodd" clip-rule="evenodd" d="M15.6554 -0.0400391C16.3494 -0.0400391 17.0434 -0.0400391 17.7374 -0.0400391C17.8871 0.0131824 18.0472 0.0665677 18.2179 0.120117C17.3792 1.11458 16.9522 2.26236 16.9366 3.56348C17.7107 3.56348 18.4848 3.56348 19.2589 3.56348C19.2732 2.51929 19.7003 1.67847 20.5401 1.04102C21.325 0.499637 22.1792 0.139285 23.1026 -0.0400391C23.8234 -0.0400391 24.5441 -0.0400391 25.2648 -0.0400391C27.2376 0.272295 28.8792 1.17985 30.1896 2.68262C31.2653 4.16473 31.559 5.79298 31.0704 7.56738C30.6543 8.74837 29.9469 9.70931 28.9484 10.4502C28.8686 10.9545 28.8418 11.4617 28.8683 11.9717C23.2628 11.9717 17.6573 11.9717 12.0519 11.9717C12.0783 11.4617 12.0515 10.9545 11.9718 10.4502C9.96743 8.88179 9.2601 6.85312 9.84972 4.36426C10.5363 2.55836 11.7775 1.29045 13.5734 0.560547C14.2604 0.299958 14.9544 0.0997629 15.6554 -0.0400391Z" fill="white"/>
</g>
<g id="Group_2">
<path id="Vector_2" opacity="0.993" fill-rule="evenodd" clip-rule="evenodd" d="M12.0517 14.374C17.6571 14.374 23.2626 14.374 28.8681 14.374C28.9028 16.1655 28.8628 17.954 28.748 19.7393C27.8011 23.5156 25.4121 25.7445 21.581 26.4258C17.4347 26.7492 14.4585 25.0542 12.6522 21.3408C12.4597 20.8165 12.2995 20.2827 12.1718 19.7393C12.0569 17.954 12.0169 16.1655 12.0517 14.374Z" fill="white"/>
</g>
<g id="Group_3">
<path id="Vector_3" opacity="0.993" fill-rule="evenodd" clip-rule="evenodd" d="M14.4542 40.96C11.2511 40.96 8.04797 40.96 4.84485 40.96C4.83151 38.5841 4.84485 36.2085 4.88489 33.833C5.29674 31.7152 6.48457 30.207 8.44836 29.3086C8.78333 29.1648 9.13031 29.058 9.48938 28.9883C11.4214 28.8968 13.3567 28.8568 15.295 28.8682C17.0968 28.8815 18.8986 28.8948 20.7003 28.9082C19.1926 29.9424 17.6711 30.9567 16.1359 31.9512C15.0976 32.6793 14.5505 33.6803 14.4943 34.9541C14.4542 36.9559 14.4408 38.9578 14.4542 40.96Z" fill="white"/>
</g>
<g id="Group_4">
<path id="Vector_4" opacity="0.996" fill-rule="evenodd" clip-rule="evenodd" d="M36.0751 40.9599C29.6688 40.9599 23.2626 40.9599 16.8563 40.9599C16.843 38.7977 16.8563 36.6356 16.8964 34.4736C16.9765 34.3401 17.0565 34.2067 17.1366 34.0732C19.7125 32.3516 22.2883 30.6299 24.8641 28.9082C26.9195 28.8548 28.9748 28.8548 31.0302 28.9082C33.1831 29.2973 34.7179 30.4852 35.6347 32.4717C35.8052 32.9136 35.9387 33.3674 36.035 33.833C36.0751 36.2085 36.0885 38.5841 36.0751 40.9599ZM19.2587 34.874C20.0595 34.874 20.8602 34.874 21.661 34.874C21.661 35.6748 21.661 36.4756 21.661 37.2764C20.8602 37.2764 20.0595 37.2764 19.2587 37.2764C19.2587 36.4756 19.2587 35.6748 19.2587 34.874Z" fill="white"/>
</g>
</g>
<defs>
<clipPath id="clip0_613_7582">
<rect width="41" height="41" fill="white"/>
</clipPath>
</defs>
</svg>
