<svg width="20" height="246" viewBox="0 0 20 246" fill="none" xmlns="http://www.w3.org/2000/svg">
<path d="M5.4043 238.465L5.4043 244.939H6.78125L6.78125 240.096H15.7461C17.2598 240.096 17.7285 240.691 17.7285 242.664C17.7285 243.309 17.6992 244.676 17.6504 245.184H19.1348C19.1934 244.48 19.2129 243.348 19.2129 242.615C19.2129 239.666 18.2852 238.465 15.9414 238.465H5.4043ZM2.80664 239.422C2.80664 238.641 2.2207 238.045 1.43945 238.045C0.667969 238.045 0.0820313 238.641 0.0820313 239.422C0.0820313 240.203 0.667969 240.799 1.43945 240.799C2.2207 240.799 2.80664 240.203 2.80664 239.422ZM16.1953 228.455C16.1953 225.652 14.3691 223.865 11.5078 223.865H9.90625C7.04492 223.865 5.21875 225.652 5.21875 228.455C5.21875 231.258 7.04492 233.045 9.90625 233.045H11.5078C14.3691 233.045 16.1953 231.258 16.1953 228.455ZM6.68359 228.455C6.68359 226.639 7.97266 225.506 10.0527 225.506H11.3516C13.4414 225.506 14.7207 226.639 14.7207 228.455C14.7207 230.271 13.4414 231.404 11.3516 231.404H10.0527C7.97266 231.404 6.68359 230.271 6.68359 228.455ZM16.1953 216.092C16.1953 213.289 14.3691 211.502 11.5078 211.502H9.90625C7.04492 211.502 5.21875 213.289 5.21875 216.092C5.21875 218.894 7.04492 220.682 9.90625 220.682H11.5078C14.3691 220.682 16.1953 218.894 16.1953 216.092ZM6.68359 216.092C6.68359 214.275 7.97266 213.143 10.0527 213.143H11.3516C13.4414 213.143 14.7207 214.275 14.7207 216.092C14.7207 217.908 13.4414 219.041 11.3516 219.041H10.0527C7.97266 219.041 6.68359 217.908 6.68359 216.092ZM16 199.1H14.623V202.596H1.24414L1.24414 207.85H2.62109V204.256H14.623V207.879H16V199.1ZM16.1855 192.439C16.1855 190.896 15.5508 189.744 14.418 189.236V189.07H16.0098L16.0098 187.488H8.75391C6.54688 187.488 5.27734 188.914 5.27734 191.404C5.27734 193.572 6.43945 195.213 8.13867 195.408L8.13867 193.777C7.23047 193.504 6.71289 192.644 6.71289 191.424C6.71289 189.949 7.44531 189.139 8.77344 189.139H9.73047L9.87695 192.049C10.0039 194.461 11.1172 195.809 12.9922 195.809C14.916 195.809 16.1855 194.461 16.1855 192.439ZM14.7305 191.961C14.7305 193.299 14.0469 194.129 12.9336 194.129C11.8301 194.129 11.1953 193.348 11.127 191.863L11 189.139H12.25C13.666 189.139 14.7305 190.359 14.7305 191.961ZM8.10938 179.441H5.4043L5.4043 183.396H6.73242L6.73242 181.043H14.6719V183.182H16V176.141H14.6719V179.422H11.2539C8.55859 179.422 6.9375 178.035 6.9375 175.691C6.9375 175.115 7.05469 174.432 7.23047 173.943H5.36523C5.21875 174.295 5.13086 174.871 5.13086 175.477C5.13086 177.518 6.14648 178.836 8.10938 179.227V179.441ZM2.80664 166.453C2.80664 165.672 2.2207 165.076 1.43945 165.076C0.667969 165.076 0.0820313 165.672 0.0820313 166.453C0.0820313 167.234 0.667969 167.83 1.43945 167.83C2.2207 167.83 2.80664 167.234 2.80664 166.453ZM16 162.01H14.623V165.516H5.4043V170.76H6.78125V167.156H14.623V170.789H16L16 162.01ZM16 158.611V156.951H9.75977C7.95313 156.951 6.73242 155.779 6.73242 154.031C6.73242 152.381 7.63086 151.6 9.54492 151.6H16V149.939H9.125C6.58594 149.939 5.20898 151.189 5.20898 153.494C5.20898 155.105 5.95117 156.316 7.26953 156.883V157.019H5.4043V158.611H16ZM9.92578 144.959C7.97266 144.959 6.72266 143.836 6.72266 142.088C6.72266 140.35 7.97266 139.227 9.92578 139.227H11.4492C13.4121 139.227 14.6621 140.35 14.6621 142.088C14.6621 143.836 13.4023 144.959 11.4492 144.959H9.92578ZM14.3789 139.217H16V137.586H1.24414V139.275H7.04492V139.451C5.88281 139.91 5.22852 141.043 5.22852 142.576C5.22852 145.027 6.99609 146.629 9.71094 146.629H11.6836C14.4082 146.629 16.1758 145.027 16.1758 142.576C16.1758 141.062 15.5508 139.949 14.3789 139.402V139.217ZM6.63477 129.432C6.63477 127.723 7.85547 126.687 9.87695 126.687V132.264C7.8457 132.264 6.63477 131.199 6.63477 129.432ZM13.2656 126.687C14.1934 126.98 14.7598 127.967 14.7598 129.305C14.7598 131.111 13.5098 132.264 11.5664 132.264H11.1367V125.047H10.1016C7.03516 125.047 5.20898 126.668 5.20898 129.422C5.20898 132.117 7.04492 133.904 9.83789 133.904H11.4297C14.4473 133.904 16.1953 132.215 16.1953 129.305C16.1953 127.078 15.0137 125.398 13.2656 125.076V126.687ZM17.9336 116.893C17.9336 115.935 17.7773 114.969 17.5527 114.5H16.4004C16.6055 114.91 16.752 115.838 16.752 116.717C16.752 119.685 14.7988 121.043 10.4727 121.043H8.95898C4.70117 121.043 2.77734 119.783 2.77734 117.049C2.77734 114.49 4.47656 113.162 7.80664 113.162H10.5508C11.5273 113.162 11.8887 113.494 11.8887 114.393V115.994H7.83594C7.10352 115.994 6.64453 116.365 6.64453 116.932C6.64453 117.508 7.10352 117.879 7.83594 117.879H11.8301C12.5527 117.879 13.0117 117.42 13.0117 116.687V114.197C13.0117 112.791 12.084 111.971 10.5117 111.971H7.5918C3.73438 111.971 1.5957 113.797 1.5957 117.039C1.5957 120.447 4.11523 122.254 8.87109 122.254H10.6973C15.4531 122.254 17.9336 120.408 17.9336 116.893ZM11.3809 107.977H9.92578C7.98242 107.977 6.72266 106.844 6.72266 105.086C6.72266 103.338 7.97266 102.215 9.92578 102.215H11.3809C13.334 102.215 14.5938 103.338 14.5938 105.086C14.5938 106.844 13.3242 107.977 11.3809 107.977ZM19.9746 105.135C19.9746 102.264 18.4902 100.564 16 100.564H5.4043L5.4043 102.205H7.04492V102.391C5.90234 102.85 5.22852 104.012 5.22852 105.545C5.22852 108.025 6.98633 109.646 9.71094 109.646H11.6152C14.3301 109.646 16.0977 108.035 16.0977 105.584C16.0977 104.041 15.4238 102.869 14.3105 102.4V102.225H15.9609C17.6602 102.225 18.5977 103.25 18.5977 105.105C18.5977 106.521 18.0215 107.586 17.1426 107.801V109.441C18.9004 109.227 19.9746 107.586 19.9746 105.135ZM8.19727 87.3515C6.23438 87.3515 5.20898 88.123 5.20898 89.5976C5.20898 90.662 5.85352 91.5117 6.86914 91.7851V91.9609C5.82422 92.1855 5.20898 92.8886 5.20898 93.8847C5.20898 94.8808 5.83398 95.6425 6.89844 95.9062V96.082H5.4043V97.5663H16V96.0722H8.85156C7.5332 96.0722 6.72266 95.4863 6.72266 94.5488C6.72266 93.6503 7.39648 93.1816 8.67578 93.1816H16V91.6972H8.85156C7.5332 91.6972 6.72266 91.1308 6.72266 90.2031C6.72266 89.3144 7.39648 88.8456 8.68555 88.8456H16V87.3515H8.19727ZM16.1855 81.1699C16.1855 79.6269 15.5508 78.4745 14.418 77.9667V77.8007H16.0098V76.2187H8.75391C6.54688 76.2187 5.27734 77.6445 5.27734 80.1347C5.27734 82.3027 6.43945 83.9433 8.13867 84.1386V82.5078C7.23047 82.2343 6.71289 81.3749 6.71289 80.1542C6.71289 78.6796 7.44531 77.8691 8.77344 77.8691H9.73047L9.87695 80.7792C10.0039 83.1913 11.1172 84.539 12.9922 84.539C14.916 84.539 16.1855 83.1913 16.1855 81.1699ZM14.7305 80.6913C14.7305 82.0292 14.0469 82.8593 12.9336 82.8593C11.8301 82.8593 11.1953 82.0781 11.127 80.5937L11 77.8691H12.25C13.666 77.8691 14.7305 79.0898 14.7305 80.6913ZM2.80664 67.5468C2.80664 66.7656 2.2207 66.1699 1.43945 66.1699C0.667969 66.1699 0.0820313 66.7656 0.0820313 67.5468C0.0820313 68.3281 0.667969 68.9238 1.43945 68.9238C2.2207 68.9238 2.80664 68.3281 2.80664 67.5468ZM16 63.1035H14.623V66.6093H5.4043L5.4043 71.8535H6.78125V68.2499H14.623V71.8828H16V63.1035ZM16 50.7402H14.623V54.2363H1.24414L1.24414 59.4902H2.62109L2.62109 55.8964H14.623V59.5195H16V50.7402ZM16.0586 43.0058C16.0586 42.039 15.248 41.2382 14.252 41.2382C13.2656 41.2382 12.4551 42.039 12.4551 43.0058C12.4551 43.9726 13.2656 44.7734 14.252 44.7734C15.248 44.7734 16.0586 43.9726 16.0586 43.0058ZM8.70508 26.2285C6.52734 26.5019 5.19922 28.1035 5.19922 30.4472C5.19922 33.3281 6.9668 35.0078 10.0039 35.0078H11.3906C14.4277 35.0078 16.1953 33.3281 16.1953 30.4472C16.1953 28.1035 14.877 26.4921 12.7188 26.2285V27.8691C13.9297 28.0742 14.7012 29.1093 14.7012 30.4765C14.7012 32.3222 13.4512 33.3476 11.1758 33.3476H10.2188C7.94336 33.3476 6.68359 32.3222 6.68359 30.4765C6.68359 29.1093 7.46484 28.0742 8.70508 27.8691V26.2285ZM16.1953 18.2792C16.1953 15.4765 14.3691 13.6894 11.5078 13.6894H9.90625C7.04492 13.6894 5.21875 15.4765 5.21875 18.2792C5.21875 21.082 7.04492 22.8691 9.90625 22.8691H11.5078C14.3691 22.8691 16.1953 21.082 16.1953 18.2792ZM6.68359 18.2792C6.68359 16.4628 7.97266 15.33 10.0527 15.33H11.3516C13.4414 15.33 14.7207 16.4628 14.7207 18.2792C14.7207 20.0956 13.4414 21.2285 11.3516 21.2285H10.0527C7.97266 21.2285 6.68359 20.0956 6.68359 18.2792ZM8.19727 0.808533C6.23438 0.808533 5.20898 1.58002 5.20898 3.05463C5.20898 4.11908 5.85352 4.96869 6.86914 5.24213V5.41791C5.82422 5.64252 5.20898 6.34564 5.20898 7.34174C5.20898 8.33783 5.83398 9.09955 6.89844 9.36322V9.539H5.4043V11.0234H16V9.52924H8.85156C7.5332 9.52924 6.72266 8.9433 6.72266 8.0058C6.72266 7.10736 7.39648 6.63861 8.67578 6.63861H16V5.15424H8.85156C7.5332 5.15424 6.72266 4.58783 6.72266 3.6601C6.72266 2.77142 7.39648 2.30267 8.68555 2.30267H16V0.808533H8.19727Z" fill="white"/>
</svg>
