<svg width="41" height="41" viewBox="0 0 41 41" fill="none" xmlns="http://www.w3.org/2000/svg">
<g id="mic 1" clip-path="url(#clip0_613_7569)">
<g id="Group">
<path id="Vector" opacity="0.993" fill-rule="evenodd" clip-rule="evenodd" d="M19.2588 -0.0400391C20.0596 -0.0400391 20.8604 -0.0400391 21.6611 -0.0400391C25.6458 0.768214 28.0214 3.17056 28.7881 7.16699C26.8128 7.16699 24.8376 7.16699 22.8623 7.16699C22.8623 7.96777 22.8623 8.76855 22.8623 9.56934C24.8643 9.56934 26.8662 9.56934 28.8682 9.56934C28.8682 10.7705 28.8682 11.9717 28.8682 13.1729C26.8662 13.1729 24.8643 13.1729 22.8623 13.1729C22.8623 13.9736 22.8623 14.7744 22.8623 15.5752C24.8643 15.5752 26.8662 15.5752 28.8682 15.5752C28.8682 16.7764 28.8682 17.9775 28.8682 19.1787C26.8662 19.1787 24.8643 19.1787 22.8623 19.1787C22.8623 19.9795 22.8623 20.7803 22.8623 21.5811C24.8376 21.5811 26.8128 21.5811 28.7881 21.5811C28.1055 25.3736 25.89 27.7359 22.1416 28.668C18.2558 29.2401 15.2529 27.8922 13.1328 24.624C12.5981 23.674 12.2644 22.6596 12.1318 21.5811C14.1071 21.5811 16.0823 21.5811 18.0576 21.5811C18.0576 20.7803 18.0576 19.9795 18.0576 19.1787C16.0557 19.1787 14.0537 19.1787 12.0518 19.1787C12.0518 17.9775 12.0518 16.7764 12.0518 15.5752C14.0537 15.5752 16.0557 15.5752 18.0576 15.5752C18.0576 14.7744 18.0576 13.9736 18.0576 13.1729C16.0557 13.1729 14.0537 13.1729 12.0518 13.1729C12.0518 11.9717 12.0518 10.7705 12.0518 9.56934C14.0537 9.56934 16.0557 9.56934 18.0576 9.56934C18.0576 8.76855 18.0576 7.96777 18.0576 7.16699C16.0823 7.16699 14.1071 7.16699 12.1318 7.16699C12.8985 3.17056 15.2741 0.768214 19.2588 -0.0400391Z" fill="white"/>
</g>
<g id="Group_2">
<path id="Vector_2" opacity="0.976" fill-rule="evenodd" clip-rule="evenodd" d="M30.0694 40.96C23.6631 40.96 17.2569 40.96 10.8506 40.96C10.8506 40.1592 10.8506 39.3584 10.8506 38.5576C13.6533 38.5576 16.4561 38.5576 19.2588 38.5576C19.2588 36.9026 19.2588 35.2477 19.2588 33.5928C13.9407 32.8908 10.217 30.0881 8.08791 25.1846C7.48772 23.6387 7.20745 22.0372 7.24709 20.3799C8.07454 20.3799 8.90207 20.3799 9.72952 20.3799C9.91602 25.0628 12.1315 28.386 16.376 30.3496C21.1688 32.0042 25.2928 30.9765 28.7481 27.2666C30.3642 25.2613 31.1784 22.9657 31.1905 20.3799C32.0179 20.3799 32.8454 20.3799 33.6729 20.3799C33.5874 24.8619 31.7723 28.4521 28.2276 31.1504C26.258 32.5411 24.0693 33.3553 21.6612 33.5928C21.6612 35.2477 21.6612 36.9026 21.6612 38.5576C24.4639 38.5576 27.2666 38.5576 30.0694 38.5576C30.0694 39.3584 30.0694 40.1592 30.0694 40.96Z" fill="white"/>
</g>
</g>
<defs>
<clipPath id="clip0_613_7569">
<rect width="41" height="41" fill="white"/>
</clipPath>
</defs>
</svg>
