<svg width="41" height="41" viewBox="0 0 41 41" fill="none" xmlns="http://www.w3.org/2000/svg">
<g id="microphone 1" clip-path="url(#clip0_611_7539)">
<g id="Group">
<path id="Vector" opacity="0.989" fill-rule="evenodd" clip-rule="evenodd" d="M27.0263 -0.0400391C27.7737 -0.0400391 28.5212 -0.0400391 29.2685 -0.0400391C33.8036 0.905547 36.2593 3.69494 36.6357 8.32812C36.3791 12.5874 34.217 15.3367 30.1494 16.5762C26.2073 17.2936 23.1243 15.999 20.9004 12.6924C19.1471 9.30708 19.3874 6.07729 21.6211 3.00293C23.0493 1.3203 24.851 0.30597 27.0263 -0.0400391Z" fill="white"/>
</g>
<g id="Group_2">
<path id="Vector_2" opacity="0.977" fill-rule="evenodd" clip-rule="evenodd" d="M13.5733 40.96C13.4932 40.96 13.4131 40.96 13.333 40.96C12.7353 40.3221 12.1214 39.6949 11.4912 39.0781C12.6014 37.9947 13.6824 36.887 14.7344 35.7549C15.2229 34.5434 14.8225 33.796 13.5332 33.5127C13.165 33.5834 12.8314 33.7302 12.5323 33.9531C12.0785 34.4069 11.6247 34.8607 11.1709 35.3145C9.45478 36.5065 7.71978 36.5332 5.96585 35.3945C4.39161 33.9957 3.95118 32.3008 4.64457 30.3096C5.1341 29.4188 5.77472 28.6447 6.56644 27.9873C6.57643 27.5832 6.53639 27.1828 6.44632 26.7861C6.50314 26.0415 6.75671 25.3742 7.20707 24.7842C10.6504 20.3799 14.0938 15.9756 17.5371 11.5713C18.8297 15.2128 21.2987 17.6818 24.9444 18.9785C20.5134 22.4485 16.0824 25.9186 11.6514 29.3887C10.6892 30.0162 9.64817 30.203 8.52835 29.9492C8.08528 30.3655 7.67155 30.8059 7.28714 31.2705C6.88287 32.2901 7.18984 32.9975 8.20804 33.3926C8.57416 33.4636 8.92114 33.4102 9.24906 33.2324C9.88968 32.6452 10.5303 32.0579 11.1709 31.4707C12.4392 30.7252 13.7739 30.5917 15.1748 31.0703C17.0895 32.0026 17.9303 33.5374 17.6973 35.6748C17.5858 36.3837 17.3189 37.0243 16.8965 37.5967C15.7726 38.7072 14.6648 39.8283 13.5733 40.96Z" fill="white"/>
</g>
</g>
<defs>
<clipPath id="clip0_611_7539">
<rect width="41" height="41" fill="white"/>
</clipPath>
</defs>
</svg>
