<svg width="160" height="141" viewBox="0 0 160 141" fill="none" xmlns="http://www.w3.org/2000/svg">
    <path fill-rule="evenodd" clip-rule="evenodd"
          d="M107.675 139.752C112.245 138.015 119.376 134.199 124.537 130.73C130.711 126.58 139.194 118.664 143.418 113.111C151.006 103.138 154.976 92.9935 157.256 77.7452C158.79 67.4916 158.9 64.8884 159.041 35.1271C159.192 3.4753 159.329 5.46204 156.821 2.95427C154.401 0.533966 155.832 0.642761 126.356 0.642758C97.8858 0.642756 98.8824 0.584666 96.5304 2.37887C95.9296 2.83685 95.0628 3.85046 94.6036 4.63107L93.7692 6.05073L93.6855 33.018L93.6014 59.9853L94.2692 61.5376C95.0532 63.3599 97.205 65.3908 98.8301 65.8423C99.4964 66.0271 105.048 66.1538 112.543 66.1548L125.136 66.1566L125.136 68.0998C125.136 72.5241 123.874 80.0326 122.295 85.0073C120.196 91.6211 116.993 96.9537 112.353 101.559C108.568 105.317 104.184 108.301 98.0227 111.315C93.517 113.52 92.8412 114.067 91.6032 116.511C91.2753 117.159 91.0568 118.313 91.046 119.453C91.0306 121.105 91.2364 121.775 92.7584 125.033C98.5502 137.428 99.0239 138.214 101.443 139.449C103.217 140.354 105.765 140.477 107.675 139.752ZM16.2922 139.978C18.0049 139.662 26.0578 135.721 30.4185 133.065C43.648 125.008 53.9748 114.214 60.0178 102.125C64.4366 93.2862 66.6254 84.3571 68.1669 68.8791C68.5766 64.766 68.6941 58.616 68.8047 35.4386C68.9577 3.43945 69.0961 5.46574 66.5847 2.95426C64.1647 0.534278 65.5945 0.642753 36.1355 0.64275C7.4216 0.642748 8.4281 0.580309 6.09309 2.50493C5.48059 3.00989 4.61934 4.14588 4.17897 5.02937L3.37858 6.63571L3.38537 33.383C3.39217 59.6238 3.40424 60.1568 4.02167 61.5212C4.74511 63.1198 5.84864 64.3649 7.39594 65.3284C8.45251 65.9866 8.7844 66.0058 21.7614 66.1566L35.0453 66.3111L34.951 68.7833C34.7072 75.1688 33.1658 82.7681 31.0248 88.1365C28.8236 93.6564 26.1873 97.6827 22.1866 101.635C18.5457 105.231 14.8284 107.794 8.9933 110.73C3.3996 113.544 1.83621 114.841 1.20302 117.192C0.453615 119.975 0.848268 121.377 4.53652 129.044C6.59494 133.323 8.4216 136.692 9.12618 137.509C10.9161 139.584 13.5354 140.487 16.2922 139.978Z"
          fill="#a2a3b0"/>
</svg>
