<svg width="1420" height="324" viewBox="0 0 1420 324" fill="none" xmlns="http://www.w3.org/2000/svg">
<g filter="url(#filter0_d_203_7237)">
<rect x="50" y="42" width="1320" height="224" rx="20" fill="#112240"/>
<path d="M245.408 129.824H247.352C247.448 130.656 247.744 131.312 248.24 131.792C248.736 132.256 249.392 132.488 250.208 132.488C252.16 132.488 253.136 131.36 253.136 129.104V119.264H255.032V129.104C255.032 130.768 254.592 132.04 253.712 132.92C252.848 133.784 251.688 134.216 250.232 134.216C248.808 134.216 247.672 133.816 246.824 133.016C245.976 132.216 245.504 131.152 245.408 129.824ZM265.748 124.688C266.66 125.712 267.116 127.04 267.116 128.672C267.116 130.304 266.66 131.64 265.748 132.68C264.852 133.704 263.676 134.216 262.22 134.216C260.764 134.216 259.58 133.704 258.668 132.68C257.772 131.64 257.324 130.304 257.324 128.672C257.324 127.04 257.772 125.712 258.668 124.688C259.58 123.648 260.764 123.128 262.22 123.128C263.676 123.128 264.852 123.648 265.748 124.688ZM264.452 131.552C265.012 130.816 265.292 129.856 265.292 128.672C265.292 127.488 265.012 126.536 264.452 125.816C263.908 125.08 263.164 124.712 262.22 124.712C261.276 124.712 260.524 125.08 259.964 125.816C259.42 126.536 259.148 127.488 259.148 128.672C259.148 129.856 259.42 130.816 259.964 131.552C260.524 132.272 261.276 132.632 262.22 132.632C263.164 132.632 263.908 132.272 264.452 131.552ZM269.553 134V118.4H271.353V124.688C271.689 124.24 272.129 123.872 272.673 123.584C273.233 123.28 273.841 123.128 274.497 123.128C275.681 123.128 276.601 123.48 277.257 124.184C277.913 124.888 278.241 125.832 278.241 127.016V134H276.417V127.304C276.417 126.536 276.217 125.928 275.817 125.48C275.433 125.016 274.849 124.784 274.065 124.784C273.441 124.784 272.881 124.976 272.385 125.36C271.889 125.728 271.545 126.2 271.353 126.776V134H269.553ZM281.296 134V123.344H283.096V124.688C283.432 124.24 283.872 123.872 284.416 123.584C284.976 123.28 285.584 123.128 286.24 123.128C287.424 123.128 288.344 123.48 289 124.184C289.656 124.888 289.984 125.832 289.984 127.016V134H288.16V127.304C288.16 126.536 287.96 125.928 287.56 125.48C287.176 125.016 286.592 124.784 285.808 124.784C285.184 124.784 284.624 124.976 284.128 125.36C283.632 125.728 283.288 126.2 283.096 126.776V134H281.296ZM300.135 123.344V134H298.335V123.344H300.135ZM300.039 119.312C300.279 119.536 300.399 119.808 300.399 120.128C300.399 120.448 300.279 120.72 300.039 120.944C299.815 121.168 299.543 121.28 299.223 121.28C298.903 121.28 298.631 121.168 298.407 120.944C298.183 120.72 298.071 120.448 298.071 120.128C298.071 119.808 298.183 119.536 298.407 119.312C298.631 119.088 298.903 118.976 299.223 118.976C299.543 118.976 299.815 119.088 300.039 119.312ZM302.462 131.072H304.334C304.67 132.16 305.51 132.704 306.854 132.704C307.51 132.704 308.038 132.576 308.438 132.32C308.838 132.048 309.038 131.648 309.038 131.12C309.038 130.4 308.51 129.904 307.454 129.632L305.342 129.08C303.63 128.648 302.774 127.712 302.774 126.272C302.774 125.344 303.134 124.592 303.854 124.016C304.574 123.424 305.486 123.128 306.59 123.128C307.742 123.128 308.67 123.392 309.374 123.92C310.078 124.448 310.526 125.192 310.718 126.152H308.918C308.598 125.144 307.814 124.64 306.566 124.64C306.006 124.64 305.526 124.776 305.126 125.048C304.726 125.304 304.526 125.68 304.526 126.176C304.526 126.528 304.638 126.808 304.862 127.016C305.102 127.208 305.486 127.376 306.014 127.52L308.078 128.024C309.886 128.504 310.79 129.496 310.79 131C310.79 131.992 310.422 132.776 309.686 133.352C308.95 133.928 307.998 134.216 306.83 134.216C305.662 134.216 304.678 133.936 303.878 133.376C303.094 132.816 302.622 132.048 302.462 131.072ZM326.313 134H324.585V133.208C324.361 133.448 323.985 133.672 323.457 133.88C322.929 134.088 322.369 134.192 321.777 134.192C320.657 134.192 319.713 133.88 318.945 133.256C318.193 132.632 317.817 131.808 317.817 130.784C317.817 129.808 318.209 129.008 318.993 128.384C319.777 127.76 320.745 127.448 321.897 127.448C322.425 127.448 322.945 127.536 323.457 127.712C323.969 127.888 324.345 128.088 324.585 128.312V126.968C324.585 126.28 324.377 125.728 323.961 125.312C323.561 124.896 322.985 124.688 322.233 124.688C321.113 124.688 320.385 125.176 320.049 126.152H318.273C318.449 125.256 318.897 124.528 319.617 123.968C320.353 123.408 321.233 123.128 322.257 123.128C323.521 123.128 324.513 123.464 325.233 124.136C325.953 124.808 326.313 125.728 326.313 126.896V134ZM324.585 131.36V130.256C324.425 129.872 324.105 129.56 323.625 129.32C323.161 129.064 322.649 128.936 322.089 128.936C321.385 128.936 320.785 129.096 320.289 129.416C319.793 129.736 319.545 130.192 319.545 130.784C319.545 131.392 319.793 131.864 320.289 132.2C320.785 132.52 321.385 132.68 322.089 132.68C322.649 132.68 323.161 132.56 323.625 132.32C324.105 132.064 324.425 131.744 324.585 131.36ZM342.39 126.368C343.174 126.576 343.814 127 344.31 127.64C344.806 128.28 345.054 129.016 345.054 129.848C345.054 131.176 344.622 132.2 343.758 132.92C342.894 133.64 341.694 134 340.158 134H334.83V119.264H339.678C341.214 119.264 342.406 119.6 343.254 120.272C344.118 120.944 344.55 121.912 344.55 123.176C344.55 124.008 344.342 124.704 343.926 125.264C343.526 125.808 343.014 126.176 342.39 126.368ZM336.678 125.672H339.678C341.71 125.672 342.726 124.872 342.726 123.272C342.726 121.704 341.71 120.92 339.678 120.92H336.678V125.672ZM336.678 127.256V132.344H340.158C341.134 132.344 341.886 132.12 342.414 131.672C342.942 131.208 343.206 130.584 343.206 129.8C343.206 129 342.942 128.376 342.414 127.928C341.886 127.48 341.134 127.256 340.158 127.256H336.678ZM356.096 123.344V134H354.272V132.656C353.952 133.104 353.52 133.48 352.976 133.784C352.432 134.072 351.832 134.216 351.176 134.216C349.992 134.216 349.072 133.864 348.416 133.16C347.776 132.456 347.456 131.512 347.456 130.328V123.344H349.28V130.04C349.28 130.824 349.472 131.44 349.856 131.888C350.24 132.336 350.824 132.56 351.608 132.56C352.216 132.56 352.76 132.376 353.24 132.008C353.736 131.64 354.08 131.16 354.272 130.568V123.344H356.096ZM358.408 131.072H360.28C360.616 132.16 361.456 132.704 362.8 132.704C363.456 132.704 363.984 132.576 364.384 132.32C364.784 132.048 364.984 131.648 364.984 131.12C364.984 130.4 364.456 129.904 363.4 129.632L361.288 129.08C359.576 128.648 358.72 127.712 358.72 126.272C358.72 125.344 359.08 124.592 359.8 124.016C360.52 123.424 361.432 123.128 362.536 123.128C363.688 123.128 364.616 123.392 365.32 123.92C366.024 124.448 366.472 125.192 366.664 126.152H364.864C364.544 125.144 363.76 124.64 362.512 124.64C361.952 124.64 361.472 124.776 361.072 125.048C360.672 125.304 360.472 125.68 360.472 126.176C360.472 126.528 360.584 126.808 360.808 127.016C361.048 127.208 361.432 127.376 361.96 127.52L364.023 128.024C365.832 128.504 366.736 129.496 366.736 131C366.736 131.992 366.368 132.776 365.632 133.352C364.896 133.928 363.944 134.216 362.776 134.216C361.608 134.216 360.624 133.936 359.824 133.376C359.04 132.816 358.568 132.048 358.408 131.072ZM372.19 138.08H370.414L372.022 134.072L367.87 123.344H369.814L372.958 131.744L376.054 123.344H377.926L372.19 138.08ZM385.408 119.264H394.792V120.944H387.28V125.6H394.096V127.28H387.28V132.296H394.792V134H385.408V119.264ZM406.136 123.344L402.392 128.48L406.352 134H404.312L401.36 129.848L398.384 134H396.44L400.376 128.552L396.656 123.344H398.72L401.408 127.16L404.168 123.344H406.136ZM414.883 130.808H416.587C416.395 131.848 415.923 132.68 415.171 133.304C414.419 133.912 413.459 134.216 412.291 134.216C410.835 134.216 409.651 133.712 408.739 132.704C407.843 131.68 407.395 130.344 407.395 128.696C407.395 127.08 407.843 125.752 408.739 124.712C409.635 123.656 410.803 123.128 412.243 123.128C413.667 123.128 414.771 123.608 415.555 124.568C416.339 125.512 416.731 126.776 416.731 128.36V129.008H409.195C409.211 130.128 409.499 131.024 410.059 131.696C410.635 132.352 411.379 132.68 412.291 132.68C412.963 132.68 413.523 132.52 413.971 132.2C414.435 131.864 414.739 131.4 414.883 130.808ZM412.267 124.664C411.467 124.664 410.795 124.928 410.251 125.456C409.707 125.984 409.371 126.712 409.243 127.64H414.907C414.891 126.792 414.659 126.088 414.211 125.528C413.763 124.952 413.115 124.664 412.267 124.664ZM419.754 132.68C418.858 131.656 418.41 130.32 418.41 128.672C418.41 127.024 418.858 125.688 419.754 124.664C420.65 123.64 421.818 123.128 423.258 123.128C424.426 123.128 425.378 123.44 426.114 124.064C426.866 124.688 427.338 125.52 427.53 126.56H425.682C425.554 125.984 425.274 125.536 424.842 125.216C424.426 124.88 423.898 124.712 423.258 124.712C422.346 124.712 421.61 125.08 421.05 125.816C420.506 126.552 420.234 127.504 420.234 128.672C420.234 129.84 420.506 130.792 421.05 131.528C421.61 132.264 422.346 132.632 423.258 132.632C423.898 132.632 424.426 132.472 424.842 132.152C425.274 131.816 425.554 131.36 425.682 130.784H427.53C427.338 131.824 426.866 132.656 426.114 133.28C425.378 133.904 424.426 134.216 423.258 134.216C421.818 134.216 420.65 133.704 419.754 132.68ZM438.385 123.344V134H436.561V132.656C436.241 133.104 435.809 133.48 435.265 133.784C434.721 134.072 434.121 134.216 433.465 134.216C432.281 134.216 431.361 133.864 430.705 133.16C430.065 132.456 429.745 131.512 429.745 130.328V123.344H431.569V130.04C431.569 130.824 431.761 131.44 432.145 131.888C432.529 132.336 433.113 132.56 433.897 132.56C434.505 132.56 435.049 132.376 435.529 132.008C436.025 131.64 436.369 131.16 436.561 130.568V123.344H438.385ZM442.089 131.312V124.88H440.361V123.344H442.089V120.536H443.889V123.344H446.457V124.88H443.889V131.12C443.889 132.112 444.361 132.608 445.305 132.608C445.801 132.608 446.265 132.464 446.697 132.176V133.856C446.249 134.096 445.689 134.216 445.017 134.216C444.121 134.216 443.409 133.976 442.881 133.496C442.353 133 442.089 132.272 442.089 131.312ZM451.002 123.344V134H449.202V123.344H451.002ZM450.906 119.312C451.146 119.536 451.266 119.808 451.266 120.128C451.266 120.448 451.146 120.72 450.906 120.944C450.682 121.168 450.41 121.28 450.09 121.28C449.77 121.28 449.498 121.168 449.274 120.944C449.05 120.72 448.938 120.448 448.938 120.128C448.938 119.808 449.05 119.536 449.274 119.312C449.498 119.088 449.77 118.976 450.09 118.976C450.41 118.976 450.682 119.088 450.906 119.312ZM458.945 134H457.169L453.041 123.344H454.985L458.105 131.72L461.201 123.344H463.097L458.945 134ZM471.672 130.808H473.376C473.184 131.848 472.712 132.68 471.96 133.304C471.208 133.912 470.248 134.216 469.08 134.216C467.624 134.216 466.44 133.712 465.528 132.704C464.632 131.68 464.184 130.344 464.184 128.696C464.184 127.08 464.632 125.752 465.528 124.712C466.424 123.656 467.592 123.128 469.032 123.128C470.456 123.128 471.56 123.608 472.344 124.568C473.128 125.512 473.52 126.776 473.52 128.36V129.008H465.984C466 130.128 466.288 131.024 466.848 131.696C467.424 132.352 468.168 132.68 469.08 132.68C469.752 132.68 470.312 132.52 470.76 132.2C471.224 131.864 471.528 131.4 471.672 130.808ZM469.056 124.664C468.256 124.664 467.584 124.928 467.04 125.456C466.496 125.984 466.16 126.712 466.032 127.64H471.696C471.68 126.792 471.448 126.088 471 125.528C470.552 124.952 469.904 124.664 469.056 124.664ZM487.985 123.344L490.169 131.48L492.521 123.344H494.273L491.129 134H489.377L487.169 125.912L484.937 134H483.185L480.041 123.344H481.841L484.193 131.48L486.377 123.344H487.985ZM496.311 134V118.4H498.111V124.688C498.447 124.24 498.887 123.872 499.431 123.584C499.991 123.28 500.599 123.128 501.255 123.128C502.439 123.128 503.359 123.48 504.015 124.184C504.671 124.888 504.999 125.832 504.999 127.016V134H503.175V127.304C503.175 126.536 502.975 125.928 502.575 125.48C502.191 125.016 501.607 124.784 500.823 124.784C500.199 124.784 499.639 124.976 499.143 125.36C498.647 125.728 498.303 126.2 498.111 126.776V134H496.311ZM515.709 124.688C516.621 125.712 517.077 127.04 517.077 128.672C517.077 130.304 516.621 131.64 515.709 132.68C514.813 133.704 513.637 134.216 512.181 134.216C510.725 134.216 509.541 133.704 508.629 132.68C507.733 131.64 507.285 130.304 507.285 128.672C507.285 127.04 507.733 125.712 508.629 124.688C509.541 123.648 510.725 123.128 512.181 123.128C513.637 123.128 514.813 123.648 515.709 124.688ZM514.413 131.552C514.973 130.816 515.253 129.856 515.253 128.672C515.253 127.488 514.973 126.536 514.413 125.816C513.869 125.08 513.125 124.712 512.181 124.712C511.237 124.712 510.485 125.08 509.925 125.816C509.381 126.536 509.109 127.488 509.109 128.672C509.109 129.856 509.381 130.816 509.925 131.552C510.485 132.272 511.237 132.632 512.181 132.632C513.125 132.632 513.869 132.272 514.413 131.552ZM524.811 134V123.344H526.611V124.688C526.947 124.24 527.387 123.872 527.931 123.584C528.491 123.28 529.099 123.128 529.755 123.128C530.939 123.128 531.859 123.48 532.515 124.184C533.171 124.888 533.499 125.832 533.499 127.016V134H531.675V127.304C531.675 126.536 531.475 125.928 531.075 125.48C530.691 125.016 530.107 124.784 529.323 124.784C528.699 124.784 528.139 124.976 527.643 125.36C527.147 125.728 526.803 126.2 526.611 126.776V134H524.811ZM543.273 130.808H544.977C544.785 131.848 544.313 132.68 543.561 133.304C542.809 133.912 541.849 134.216 540.681 134.216C539.225 134.216 538.041 133.712 537.129 132.704C536.233 131.68 535.785 130.344 535.785 128.696C535.785 127.08 536.233 125.752 537.129 124.712C538.025 123.656 539.193 123.128 540.633 123.128C542.057 123.128 543.161 123.608 543.945 124.568C544.729 125.512 545.121 126.776 545.121 128.36V129.008H537.585C537.601 130.128 537.889 131.024 538.449 131.696C539.025 132.352 539.769 132.68 540.681 132.68C541.353 132.68 541.913 132.52 542.361 132.2C542.825 131.864 543.129 131.4 543.273 130.808ZM540.657 124.664C539.857 124.664 539.185 124.928 538.641 125.456C538.097 125.984 537.761 126.712 537.633 127.64H543.297C543.281 126.792 543.049 126.088 542.601 125.528C542.153 124.952 541.505 124.664 540.657 124.664ZM554.289 130.808H555.993C555.801 131.848 555.329 132.68 554.577 133.304C553.825 133.912 552.865 134.216 551.697 134.216C550.241 134.216 549.057 133.712 548.145 132.704C547.249 131.68 546.801 130.344 546.801 128.696C546.801 127.08 547.249 125.752 548.145 124.712C549.041 123.656 550.209 123.128 551.649 123.128C553.073 123.128 554.177 123.608 554.961 124.568C555.745 125.512 556.137 126.776 556.137 128.36V129.008H548.601C548.617 130.128 548.905 131.024 549.465 131.696C550.041 132.352 550.785 132.68 551.697 132.68C552.369 132.68 552.929 132.52 553.377 132.2C553.841 131.864 554.145 131.4 554.289 130.808ZM551.673 124.664C550.873 124.664 550.201 124.928 549.657 125.456C549.113 125.984 548.777 126.712 548.649 127.64H554.313C554.297 126.792 554.065 126.088 553.617 125.528C553.169 124.952 552.521 124.664 551.673 124.664ZM565.617 134V132.752C565.329 133.168 564.913 133.52 564.369 133.808C563.825 134.08 563.241 134.216 562.617 134.216C561.113 134.216 559.937 133.688 559.089 132.632C558.241 131.576 557.817 130.256 557.817 128.672C557.817 127.104 558.241 125.792 559.089 124.736C559.937 123.664 561.113 123.128 562.617 123.128C563.241 123.128 563.825 123.272 564.369 123.56C564.913 123.832 565.329 124.176 565.617 124.592V118.4H567.441V134H565.617ZM565.617 130.832V126.512C565.345 125.968 564.961 125.544 564.465 125.24C563.985 124.92 563.457 124.76 562.881 124.76C561.889 124.76 561.097 125.128 560.505 125.864C559.929 126.584 559.641 127.52 559.641 128.672C559.641 129.824 559.929 130.768 560.505 131.504C561.097 132.224 561.889 132.584 562.881 132.584C563.457 132.584 563.985 132.432 564.465 132.128C564.961 131.808 565.345 131.376 565.617 130.832ZM569.743 131.072H571.615C571.951 132.16 572.791 132.704 574.135 132.704C574.791 132.704 575.319 132.576 575.719 132.32C576.119 132.048 576.319 131.648 576.319 131.12C576.319 130.4 575.791 129.904 574.735 129.632L572.623 129.08C570.911 128.648 570.055 127.712 570.055 126.272C570.055 125.344 570.415 124.592 571.135 124.016C571.855 123.424 572.767 123.128 573.871 123.128C575.023 123.128 575.951 123.392 576.655 123.92C577.359 124.448 577.807 125.192 577.999 126.152H576.199C575.879 125.144 575.095 124.64 573.847 124.64C573.287 124.64 572.807 124.776 572.407 125.048C572.007 125.304 571.807 125.68 571.807 126.176C571.807 126.528 571.919 126.808 572.143 127.016C572.383 127.208 572.767 127.376 573.295 127.52L575.359 128.024C577.167 128.504 578.071 129.496 578.071 131C578.071 131.992 577.703 132.776 576.967 133.352C576.231 133.928 575.279 134.216 574.111 134.216C572.943 134.216 571.959 133.936 571.159 133.376C570.375 132.816 569.903 132.048 569.743 131.072ZM593.594 134H591.866V133.208C591.642 133.448 591.266 133.672 590.738 133.88C590.21 134.088 589.65 134.192 589.058 134.192C587.938 134.192 586.994 133.88 586.226 133.256C585.474 132.632 585.098 131.808 585.098 130.784C585.098 129.808 585.49 129.008 586.274 128.384C587.058 127.76 588.026 127.448 589.178 127.448C589.706 127.448 590.226 127.536 590.738 127.712C591.25 127.888 591.626 128.088 591.866 128.312V126.968C591.866 126.28 591.658 125.728 591.242 125.312C590.842 124.896 590.266 124.688 589.514 124.688C588.394 124.688 587.666 125.176 587.33 126.152H585.554C585.73 125.256 586.178 124.528 586.898 123.968C587.634 123.408 588.514 123.128 589.538 123.128C590.802 123.128 591.794 123.464 592.514 124.136C593.234 124.808 593.594 125.728 593.594 126.896V134ZM591.866 131.36V130.256C591.706 129.872 591.386 129.56 590.906 129.32C590.442 129.064 589.93 128.936 589.37 128.936C588.666 128.936 588.066 129.096 587.57 129.416C587.074 129.736 586.826 130.192 586.826 130.784C586.826 131.392 587.074 131.864 587.57 132.2C588.066 132.52 588.666 132.68 589.37 132.68C589.93 132.68 590.442 132.56 590.906 132.32C591.386 132.064 591.706 131.744 591.866 131.36ZM596.671 134V123.344H598.471V124.688C598.807 124.24 599.247 123.872 599.791 123.584C600.351 123.28 600.959 123.128 601.615 123.128C602.799 123.128 603.719 123.48 604.375 124.184C605.031 124.888 605.359 125.832 605.359 127.016V134H603.535V127.304C603.535 126.536 603.335 125.928 602.935 125.48C602.551 125.016 601.967 124.784 601.183 124.784C600.559 124.784 599.999 124.976 599.503 125.36C599.007 125.728 598.663 126.2 598.471 126.776V134H596.671ZM620.43 130.808H622.134C621.942 131.848 621.47 132.68 620.718 133.304C619.966 133.912 619.006 134.216 617.838 134.216C616.382 134.216 615.198 133.712 614.286 132.704C613.39 131.68 612.942 130.344 612.942 128.696C612.942 127.08 613.39 125.752 614.286 124.712C615.182 123.656 616.35 123.128 617.79 123.128C619.214 123.128 620.318 123.608 621.102 124.568C621.886 125.512 622.278 126.776 622.278 128.36V129.008H614.742C614.758 130.128 615.046 131.024 615.606 131.696C616.182 132.352 616.926 132.68 617.838 132.68C618.51 132.68 619.07 132.52 619.518 132.2C619.982 131.864 620.286 131.4 620.43 130.808ZM617.814 124.664C617.014 124.664 616.342 124.928 615.798 125.456C615.254 125.984 614.918 126.712 614.79 127.64H620.454C620.438 126.792 620.206 126.088 619.758 125.528C619.31 124.952 618.662 124.664 617.814 124.664ZM632.406 134H630.678V133.208C630.454 133.448 630.078 133.672 629.55 133.88C629.022 134.088 628.462 134.192 627.87 134.192C626.75 134.192 625.806 133.88 625.038 133.256C624.286 132.632 623.91 131.808 623.91 130.784C623.91 129.808 624.302 129.008 625.086 128.384C625.87 127.76 626.838 127.448 627.99 127.448C628.518 127.448 629.038 127.536 629.55 127.712C630.062 127.888 630.438 128.088 630.678 128.312V126.968C630.678 126.28 630.47 125.728 630.054 125.312C629.654 124.896 629.078 124.688 628.326 124.688C627.206 124.688 626.478 125.176 626.142 126.152H624.366C624.542 125.256 624.99 124.528 625.71 123.968C626.446 123.408 627.326 123.128 628.35 123.128C629.614 123.128 630.606 123.464 631.326 124.136C632.046 124.808 632.406 125.728 632.406 126.896V134ZM630.678 131.36V130.256C630.518 129.872 630.198 129.56 629.718 129.32C629.254 129.064 628.742 128.936 628.182 128.936C627.478 128.936 626.878 129.096 626.382 129.416C625.886 129.736 625.638 130.192 625.638 130.784C625.638 131.392 625.886 131.864 626.382 132.2C626.878 132.52 627.478 132.68 628.182 132.68C628.742 132.68 629.254 132.56 629.718 132.32C630.198 132.064 630.518 131.744 630.678 131.36ZM634.595 131.072H636.467C636.803 132.16 637.643 132.704 638.987 132.704C639.643 132.704 640.171 132.576 640.571 132.32C640.971 132.048 641.171 131.648 641.171 131.12C641.171 130.4 640.643 129.904 639.587 129.632L637.475 129.08C635.763 128.648 634.907 127.712 634.907 126.272C634.907 125.344 635.267 124.592 635.987 124.016C636.707 123.424 637.619 123.128 638.723 123.128C639.875 123.128 640.803 123.392 641.507 123.92C642.211 124.448 642.659 125.192 642.851 126.152H641.051C640.731 125.144 639.947 124.64 638.699 124.64C638.139 124.64 637.659 124.776 637.259 125.048C636.859 125.304 636.659 125.68 636.659 126.176C636.659 126.528 636.771 126.808 636.995 127.016C637.235 127.208 637.619 127.376 638.147 127.52L640.211 128.024C642.019 128.504 642.923 129.496 642.923 131C642.923 131.992 642.555 132.776 641.819 133.352C641.083 133.928 640.131 134.216 638.963 134.216C637.795 134.216 636.811 133.936 636.011 133.376C635.227 132.816 634.755 132.048 634.595 131.072ZM648.377 138.08H646.601L648.209 134.072L644.057 123.344H646.001L649.145 131.744L652.241 123.344H654.113L648.377 138.08ZM668.22 123.344L670.404 131.48L672.756 123.344H674.508L671.364 134H669.612L667.404 125.912L665.172 134H663.42L660.276 123.344H662.076L664.428 131.48L666.612 123.344H668.22ZM684.203 134H682.475V133.208C682.251 133.448 681.875 133.672 681.347 133.88C680.819 134.088 680.259 134.192 679.667 134.192C678.547 134.192 677.603 133.88 676.835 133.256C676.083 132.632 675.707 131.808 675.707 130.784C675.707 129.808 676.099 129.008 676.883 128.384C677.667 127.76 678.635 127.448 679.787 127.448C680.315 127.448 680.835 127.536 681.347 127.712C681.859 127.888 682.235 128.088 682.475 128.312V126.968C682.475 126.28 682.267 125.728 681.851 125.312C681.451 124.896 680.875 124.688 680.123 124.688C679.003 124.688 678.275 125.176 677.939 126.152H676.163C676.339 125.256 676.787 124.528 677.507 123.968C678.243 123.408 679.123 123.128 680.147 123.128C681.411 123.128 682.403 123.464 683.123 124.136C683.843 124.808 684.203 125.728 684.203 126.896V134ZM682.475 131.36V130.256C682.315 129.872 681.995 129.56 681.515 129.32C681.051 129.064 680.539 128.936 679.979 128.936C679.275 128.936 678.675 129.096 678.179 129.416C677.683 129.736 677.435 130.192 677.435 130.784C677.435 131.392 677.683 131.864 678.179 132.2C678.675 132.52 679.275 132.68 679.979 132.68C680.539 132.68 681.051 132.56 681.515 132.32C681.995 132.064 682.315 131.744 682.475 131.36ZM690.236 138.08H688.46L690.068 134.072L685.916 123.344H687.86L691.004 131.744L694.1 123.344H695.972L690.236 138.08ZM703.815 131.312V124.88H702.087V123.344H703.815V120.536H705.615V123.344H708.183V124.88H705.615V131.12C705.615 132.112 706.087 132.608 707.031 132.608C707.527 132.608 707.991 132.464 708.423 132.176V133.856C707.975 134.096 707.415 134.216 706.743 134.216C705.847 134.216 705.135 133.976 704.607 133.496C704.079 133 703.815 132.272 703.815 131.312ZM718.467 124.688C719.379 125.712 719.835 127.04 719.835 128.672C719.835 130.304 719.379 131.64 718.467 132.68C717.571 133.704 716.395 134.216 714.939 134.216C713.483 134.216 712.299 133.704 711.387 132.68C710.491 131.64 710.043 130.304 710.043 128.672C710.043 127.04 710.491 125.712 711.387 124.688C712.299 123.648 713.483 123.128 714.939 123.128C716.395 123.128 717.571 123.648 718.467 124.688ZM717.171 131.552C717.731 130.816 718.011 129.856 718.011 128.672C718.011 127.488 717.731 126.536 717.171 125.816C716.627 125.08 715.883 124.712 714.939 124.712C713.995 124.712 713.243 125.08 712.683 125.816C712.139 126.536 711.867 127.488 711.867 128.672C711.867 129.856 712.139 130.816 712.683 131.552C713.243 132.272 713.995 132.632 714.939 132.632C715.883 132.632 716.627 132.272 717.171 131.552ZM734.553 133.28V132.488C734.265 132.888 733.849 133.232 733.305 133.52C732.777 133.792 732.201 133.928 731.577 133.928C730.089 133.928 728.921 133.4 728.073 132.344C727.225 131.288 726.801 130.016 726.801 128.528C726.801 127.024 727.225 125.752 728.073 124.712C728.921 123.656 730.089 123.128 731.577 123.128C732.201 123.128 732.777 123.264 733.305 123.536C733.849 123.808 734.265 124.144 734.553 124.544V123.344H736.377V133.16C736.377 134.856 735.937 136.136 735.057 137C734.193 137.88 733.049 138.32 731.625 138.32C730.345 138.32 729.305 138.008 728.505 137.384C727.721 136.76 727.241 135.896 727.065 134.792H728.841C729.145 136.12 730.073 136.784 731.625 136.784C733.577 136.784 734.553 135.616 734.553 133.28ZM734.553 130.64V126.392C733.945 125.288 733.041 124.736 731.841 124.736C730.849 124.736 730.065 125.088 729.489 125.792C728.929 126.496 728.649 127.408 728.649 128.528C728.649 129.648 728.929 130.56 729.489 131.264C730.065 131.952 730.849 132.296 731.841 132.296C733.041 132.296 733.945 131.744 734.553 130.64ZM746.312 130.808H748.016C747.824 131.848 747.352 132.68 746.6 133.304C745.848 133.912 744.888 134.216 743.72 134.216C742.264 134.216 741.08 133.712 740.168 132.704C739.272 131.68 738.824 130.344 738.824 128.696C738.824 127.08 739.272 125.752 740.168 124.712C741.064 123.656 742.232 123.128 743.672 123.128C745.096 123.128 746.2 123.608 746.984 124.568C747.768 125.512 748.16 126.776 748.16 128.36V129.008H740.624C740.64 130.128 740.928 131.024 741.488 131.696C742.064 132.352 742.808 132.68 743.72 132.68C744.392 132.68 744.952 132.52 745.4 132.2C745.864 131.864 746.168 131.4 746.312 130.808ZM743.696 124.664C742.896 124.664 742.224 124.928 741.68 125.456C741.136 125.984 740.8 126.712 740.672 127.64H746.336C746.32 126.792 746.088 126.088 745.64 125.528C745.192 124.952 744.544 124.664 743.696 124.664ZM751.065 131.312V124.88H749.337V123.344H751.065V120.536H752.865V123.344H755.433V124.88H752.865V131.12C752.865 132.112 753.337 132.608 754.281 132.608C754.777 132.608 755.241 132.464 755.673 132.176V133.856C755.225 134.096 754.665 134.216 753.993 134.216C753.097 134.216 752.385 133.976 751.857 133.496C751.329 133 751.065 132.272 751.065 131.312ZM768.803 118.424V120.056C768.499 119.864 768.123 119.768 767.675 119.768C767.131 119.768 766.699 119.936 766.379 120.272C766.075 120.608 765.923 121.088 765.923 121.712V123.344H768.323V124.88H765.923V134H764.147V124.88H762.347V123.344H764.147V121.568C764.147 120.528 764.451 119.704 765.059 119.096C765.667 118.488 766.451 118.184 767.411 118.184C767.955 118.184 768.419 118.264 768.803 118.424ZM777.905 124.688C778.817 125.712 779.273 127.04 779.273 128.672C779.273 130.304 778.817 131.64 777.905 132.68C777.009 133.704 775.833 134.216 774.377 134.216C772.921 134.216 771.737 133.704 770.825 132.68C769.929 131.64 769.481 130.304 769.481 128.672C769.481 127.04 769.929 125.712 770.825 124.688C771.737 123.648 772.921 123.128 774.377 123.128C775.833 123.128 777.009 123.648 777.905 124.688ZM776.609 131.552C777.169 130.816 777.449 129.856 777.449 128.672C777.449 127.488 777.169 126.536 776.609 125.816C776.065 125.08 775.321 124.712 774.377 124.712C773.433 124.712 772.681 125.08 772.121 125.816C771.577 126.536 771.305 127.488 771.305 128.672C771.305 129.856 771.577 130.816 772.121 131.552C772.681 132.272 773.433 132.632 774.377 132.632C775.321 132.632 776.065 132.272 776.609 131.552ZM789.412 124.688C790.324 125.712 790.78 127.04 790.78 128.672C790.78 130.304 790.324 131.64 789.412 132.68C788.516 133.704 787.34 134.216 785.884 134.216C784.428 134.216 783.244 133.704 782.332 132.68C781.436 131.64 780.988 130.304 780.988 128.672C780.988 127.04 781.436 125.712 782.332 124.688C783.244 123.648 784.428 123.128 785.884 123.128C787.34 123.128 788.516 123.648 789.412 124.688ZM788.116 131.552C788.676 130.816 788.956 129.856 788.956 128.672C788.956 127.488 788.676 126.536 788.116 125.816C787.572 125.08 786.828 124.712 785.884 124.712C784.94 124.712 784.188 125.08 783.628 125.816C783.084 126.536 782.812 127.488 782.812 128.672C782.812 129.856 783.084 130.816 783.628 131.552C784.188 132.272 784.94 132.632 785.884 132.632C786.828 132.632 787.572 132.272 788.116 131.552ZM800.296 134V132.752C800.008 133.168 799.592 133.52 799.048 133.808C798.504 134.08 797.92 134.216 797.296 134.216C795.792 134.216 794.616 133.688 793.768 132.632C792.92 131.576 792.496 130.256 792.496 128.672C792.496 127.104 792.92 125.792 793.768 124.736C794.616 123.664 795.792 123.128 797.296 123.128C797.92 123.128 798.504 123.272 799.048 123.56C799.592 123.832 800.008 124.176 800.296 124.592V118.4H802.12V134H800.296ZM800.296 130.832V126.512C800.024 125.968 799.64 125.544 799.144 125.24C798.664 124.92 798.136 124.76 797.56 124.76C796.568 124.76 795.776 125.128 795.184 125.864C794.608 126.584 794.32 127.52 794.32 128.672C794.32 129.824 794.608 130.768 795.184 131.504C795.776 132.224 796.568 132.584 797.56 132.584C798.136 132.584 798.664 132.432 799.144 132.128C799.64 131.808 800.024 131.376 800.296 130.832ZM811.448 132.872C810.296 131.288 809.72 129.4 809.72 127.208C809.72 125.016 810.296 123.128 811.448 121.544C812.616 119.96 814.184 118.912 816.152 118.4V120.32C814.808 120.656 813.696 121.44 812.816 122.672C811.952 123.904 811.52 125.416 811.52 127.208C811.52 129 811.952 130.512 812.816 131.744C813.696 132.976 814.808 133.76 816.152 134.096V136.016C814.184 135.504 812.616 134.456 811.448 132.872ZM820.119 132.752V138.08H818.319V123.344H820.119V124.592C820.423 124.176 820.839 123.832 821.367 123.56C821.911 123.272 822.495 123.128 823.119 123.128C824.623 123.128 825.799 123.664 826.647 124.736C827.495 125.792 827.919 127.104 827.919 128.672C827.919 130.24 827.495 131.56 826.647 132.632C825.799 133.688 824.623 134.216 823.119 134.216C822.495 134.216 821.911 134.08 821.367 133.808C820.839 133.52 820.423 133.168 820.119 132.752ZM820.119 126.512V130.832C820.391 131.376 820.767 131.808 821.247 132.128C821.743 132.432 822.279 132.584 822.855 132.584C823.847 132.584 824.631 132.224 825.207 131.504C825.799 130.768 826.095 129.824 826.095 128.672C826.095 127.52 825.799 126.584 825.207 125.864C824.631 125.128 823.847 124.76 822.855 124.76C822.279 124.76 821.743 124.92 821.247 125.24C820.767 125.544 820.391 125.968 820.119 126.512ZM835.838 123.296V125.144C835.55 124.952 835.15 124.856 834.638 124.856C834.062 124.856 833.55 125.032 833.102 125.384C832.654 125.736 832.342 126.224 832.166 126.848V134H830.366V123.344H832.166V124.736C832.406 124.272 832.758 123.888 833.222 123.584C833.702 123.28 834.23 123.128 834.806 123.128C835.27 123.128 835.614 123.184 835.838 123.296ZM844.492 130.808H846.196C846.004 131.848 845.532 132.68 844.78 133.304C844.028 133.912 843.068 134.216 841.9 134.216C840.444 134.216 839.26 133.712 838.348 132.704C837.452 131.68 837.004 130.344 837.004 128.696C837.004 127.08 837.452 125.752 838.348 124.712C839.244 123.656 840.412 123.128 841.852 123.128C843.276 123.128 844.38 123.608 845.164 124.568C845.948 125.512 846.34 126.776 846.34 128.36V129.008H838.804C838.82 130.128 839.108 131.024 839.668 131.696C840.244 132.352 840.988 132.68 841.9 132.68C842.572 132.68 843.132 132.52 843.58 132.2C844.044 131.864 844.348 131.4 844.492 130.808ZM841.876 124.664C841.076 124.664 840.404 124.928 839.86 125.456C839.316 125.984 838.98 126.712 838.852 127.64H844.516C844.5 126.792 844.268 126.088 843.82 125.528C843.372 124.952 842.724 124.664 841.876 124.664ZM854.069 118.424V120.056C853.765 119.864 853.389 119.768 852.941 119.768C852.397 119.768 851.965 119.936 851.645 120.272C851.341 120.608 851.189 121.088 851.189 121.712V123.344H853.589V124.88H851.189V134H849.413V124.88H847.613V123.344H849.413V121.568C849.413 120.528 849.717 119.704 850.325 119.096C850.933 118.488 851.717 118.184 852.677 118.184C853.221 118.184 853.685 118.264 854.069 118.424ZM862.234 130.808H863.938C863.746 131.848 863.274 132.68 862.522 133.304C861.77 133.912 860.81 134.216 859.642 134.216C858.186 134.216 857.002 133.712 856.09 132.704C855.194 131.68 854.746 130.344 854.746 128.696C854.746 127.08 855.194 125.752 856.09 124.712C856.986 123.656 858.154 123.128 859.594 123.128C861.018 123.128 862.122 123.608 862.906 124.568C863.69 125.512 864.082 126.776 864.082 128.36V129.008H856.546C856.562 130.128 856.85 131.024 857.41 131.696C857.986 132.352 858.73 132.68 859.642 132.68C860.314 132.68 860.874 132.52 861.322 132.2C861.786 131.864 862.09 131.4 862.234 130.808ZM859.618 124.664C858.818 124.664 858.146 124.928 857.602 125.456C857.058 125.984 856.722 126.712 856.594 127.64H862.258C862.242 126.792 862.01 126.088 861.562 125.528C861.114 124.952 860.466 124.664 859.618 124.664ZM871.955 123.296V125.144C871.667 124.952 871.267 124.856 870.755 124.856C870.179 124.856 869.667 125.032 869.219 125.384C868.771 125.736 868.459 126.224 868.283 126.848V134H866.483V123.344H868.283V124.736C868.523 124.272 868.875 123.888 869.339 123.584C869.819 123.28 870.347 123.128 870.923 123.128C871.387 123.128 871.731 123.184 871.955 123.296ZM881.641 134H879.913V133.208C879.689 133.448 879.313 133.672 878.785 133.88C878.257 134.088 877.697 134.192 877.105 134.192C875.985 134.192 875.041 133.88 874.273 133.256C873.521 132.632 873.145 131.808 873.145 130.784C873.145 129.808 873.537 129.008 874.321 128.384C875.105 127.76 876.073 127.448 877.225 127.448C877.753 127.448 878.273 127.536 878.785 127.712C879.297 127.888 879.673 128.088 879.913 128.312V126.968C879.913 126.28 879.705 125.728 879.289 125.312C878.889 124.896 878.313 124.688 877.561 124.688C876.441 124.688 875.713 125.176 875.377 126.152H873.601C873.777 125.256 874.225 124.528 874.945 123.968C875.681 123.408 876.561 123.128 877.585 123.128C878.849 123.128 879.841 123.464 880.561 124.136C881.281 124.808 881.641 125.728 881.641 126.896V134ZM879.913 131.36V130.256C879.753 129.872 879.433 129.56 878.953 129.32C878.489 129.064 877.977 128.936 877.417 128.936C876.713 128.936 876.113 129.096 875.617 129.416C875.121 129.736 874.873 130.192 874.873 130.784C874.873 131.392 875.121 131.864 875.617 132.2C876.113 132.52 876.713 132.68 877.417 132.68C877.977 132.68 878.489 132.56 878.953 132.32C879.433 132.064 879.753 131.744 879.913 131.36ZM886.517 132.752V134H884.693V118.4H886.517V124.592C886.805 124.176 887.221 123.832 887.765 123.56C888.309 123.272 888.893 123.128 889.517 123.128C891.021 123.128 892.197 123.664 893.045 124.736C893.893 125.792 894.317 127.104 894.317 128.672C894.317 130.256 893.893 131.576 893.045 132.632C892.197 133.688 891.021 134.216 889.517 134.216C888.893 134.216 888.309 134.08 887.765 133.808C887.221 133.52 886.805 133.168 886.517 132.752ZM886.517 126.512V130.832C886.789 131.376 887.165 131.808 887.645 132.128C888.141 132.432 888.677 132.584 889.253 132.584C890.245 132.584 891.029 132.224 891.605 131.504C892.197 130.768 892.493 129.824 892.493 128.672C892.493 127.52 892.197 126.584 891.605 125.864C891.029 125.128 890.245 124.76 889.253 124.76C888.677 124.76 888.141 124.92 887.645 125.24C887.165 125.544 886.789 125.968 886.517 126.512ZM898.564 118.4V134H896.764V118.4H898.564ZM904.924 138.08H903.148L904.756 134.072L900.604 123.344H902.548L905.692 131.744L908.788 123.344H910.66L904.924 138.08ZM919.799 118.4V134H917.999V118.4H919.799ZM931.51 123.344V134H929.686V132.656C929.366 133.104 928.934 133.48 928.39 133.784C927.846 134.072 927.246 134.216 926.59 134.216C925.406 134.216 924.486 133.864 923.83 133.16C923.19 132.456 922.87 131.512 922.87 130.328V123.344H924.694V130.04C924.694 130.824 924.886 131.44 925.27 131.888C925.654 132.336 926.238 132.56 927.022 132.56C927.63 132.56 928.174 132.376 928.654 132.008C929.15 131.64 929.494 131.16 929.686 130.568V123.344H931.51ZM934.71 134V123.344H936.51V124.688C936.846 124.24 937.286 123.872 937.83 123.584C938.39 123.28 938.998 123.128 939.654 123.128C940.838 123.128 941.758 123.48 942.414 124.184C943.07 124.888 943.398 125.832 943.398 127.016V134H941.574V127.304C941.574 126.536 941.374 125.928 940.974 125.48C940.59 125.016 940.006 124.784 939.222 124.784C938.598 124.784 938.038 124.976 937.542 125.36C937.046 125.728 936.702 126.2 936.51 126.776V134H934.71ZM947.028 132.68C946.132 131.656 945.684 130.32 945.684 128.672C945.684 127.024 946.132 125.688 947.028 124.664C947.924 123.64 949.092 123.128 950.532 123.128C951.7 123.128 952.652 123.44 953.388 124.064C954.14 124.688 954.612 125.52 954.804 126.56H952.956C952.828 125.984 952.548 125.536 952.116 125.216C951.7 124.88 951.172 124.712 950.532 124.712C949.62 124.712 948.884 125.08 948.324 125.816C947.78 126.552 947.508 127.504 947.508 128.672C947.508 129.84 947.78 130.792 948.324 131.528C948.884 132.264 949.62 132.632 950.532 132.632C951.172 132.632 951.7 132.472 952.116 132.152C952.548 131.816 952.828 131.36 952.956 130.784H954.804C954.612 131.824 954.14 132.656 953.388 133.28C952.652 133.904 951.7 134.216 950.532 134.216C949.092 134.216 947.924 133.704 947.028 132.68ZM957.163 134V118.4H958.963V124.688C959.299 124.24 959.739 123.872 960.283 123.584C960.843 123.28 961.451 123.128 962.107 123.128C963.291 123.128 964.211 123.48 964.867 124.184C965.523 124.888 965.851 125.832 965.851 127.016V134H964.027V127.304C964.027 126.536 963.827 125.928 963.427 125.48C963.043 125.016 962.459 124.784 961.675 124.784C961.051 124.784 960.491 124.976 959.995 125.36C959.499 125.728 959.155 126.2 958.963 126.776V134H957.163ZM972.529 121.544C973.697 123.128 974.281 125.016 974.281 127.208C974.281 129.4 973.697 131.288 972.529 132.872C971.377 134.456 969.817 135.504 967.849 136.016V134.096C969.193 133.76 970.297 132.976 971.161 131.744C972.041 130.512 972.481 129 972.481 127.208C972.481 125.416 972.041 123.904 971.161 122.672C970.297 121.44 969.193 120.656 967.849 120.32V118.4C969.817 118.912 971.377 119.96 972.529 121.544ZM988.945 134V132.752C988.657 133.168 988.241 133.52 987.697 133.808C987.153 134.08 986.569 134.216 985.945 134.216C984.441 134.216 983.265 133.688 982.417 132.632C981.569 131.576 981.145 130.256 981.145 128.672C981.145 127.104 981.569 125.792 982.417 124.736C983.265 123.664 984.441 123.128 985.945 123.128C986.569 123.128 987.153 123.272 987.697 123.56C988.241 123.832 988.657 124.176 988.945 124.592V118.4H990.769V134H988.945ZM988.945 130.832V126.512C988.673 125.968 988.289 125.544 987.793 125.24C987.313 124.92 986.785 124.76 986.209 124.76C985.217 124.76 984.425 125.128 983.833 125.864C983.257 126.584 982.969 127.52 982.969 128.672C982.969 129.824 983.257 130.768 983.833 131.504C984.425 132.224 985.217 132.584 986.209 132.584C986.785 132.584 987.313 132.432 987.793 132.128C988.289 131.808 988.673 131.376 988.945 130.832ZM1002.46 123.344V134H1000.63V132.656C1000.31 133.104 999.88 133.48 999.336 133.784C998.792 134.072 998.192 134.216 997.536 134.216C996.352 134.216 995.432 133.864 994.776 133.16C994.136 132.456 993.816 131.512 993.816 130.328V123.344H995.64V130.04C995.64 130.824 995.832 131.44 996.216 131.888C996.6 132.336 997.184 132.56 997.968 132.56C998.576 132.56 999.12 132.376 999.6 132.008C1000.1 131.64 1000.44 131.16 1000.63 130.568V123.344H1002.46ZM1011.13 123.296V125.144C1010.84 124.952 1010.44 124.856 1009.93 124.856C1009.35 124.856 1008.84 125.032 1008.39 125.384C1007.94 125.736 1007.63 126.224 1007.45 126.848V134H1005.65V123.344H1007.45V124.736C1007.69 124.272 1008.05 123.888 1008.51 123.584C1008.99 123.28 1009.52 123.128 1010.09 123.128C1010.56 123.128 1010.9 123.184 1011.13 123.296ZM1015.17 123.344V134H1013.37V123.344H1015.17ZM1015.07 119.312C1015.31 119.536 1015.43 119.808 1015.43 120.128C1015.43 120.448 1015.31 120.72 1015.07 120.944C1014.85 121.168 1014.57 121.28 1014.25 121.28C1013.93 121.28 1013.66 121.168 1013.44 120.944C1013.21 120.72 1013.1 120.448 1013.1 120.128C1013.1 119.808 1013.21 119.536 1013.44 119.312C1013.66 119.088 1013.93 118.976 1014.25 118.976C1014.57 118.976 1014.85 119.088 1015.07 119.312ZM1018.38 134V123.344H1020.18V124.688C1020.52 124.24 1020.96 123.872 1021.5 123.584C1022.06 123.28 1022.67 123.128 1023.33 123.128C1024.51 123.128 1025.43 123.48 1026.09 124.184C1026.74 124.888 1027.07 125.832 1027.07 127.016V134H1025.25V127.304C1025.25 126.536 1025.05 125.928 1024.65 125.48C1024.26 125.016 1023.68 124.784 1022.89 124.784C1022.27 124.784 1021.71 124.976 1021.21 125.36C1020.72 125.728 1020.37 126.2 1020.18 126.776V134H1018.38ZM1037.11 133.28V132.488C1036.82 132.888 1036.4 133.232 1035.86 133.52C1035.33 133.792 1034.76 133.928 1034.13 133.928C1032.64 133.928 1031.48 133.4 1030.63 132.344C1029.78 131.288 1029.36 130.016 1029.36 128.528C1029.36 127.024 1029.78 125.752 1030.63 124.712C1031.48 123.656 1032.64 123.128 1034.13 123.128C1034.76 123.128 1035.33 123.264 1035.86 123.536C1036.4 123.808 1036.82 124.144 1037.11 124.544V123.344H1038.93V133.16C1038.93 134.856 1038.49 136.136 1037.61 137C1036.75 137.88 1035.6 138.32 1034.18 138.32C1032.9 138.32 1031.86 138.008 1031.06 137.384C1030.28 136.76 1029.8 135.896 1029.62 134.792H1031.4C1031.7 136.12 1032.63 136.784 1034.18 136.784C1036.13 136.784 1037.11 135.616 1037.11 133.28ZM1037.11 130.64V126.392C1036.5 125.288 1035.6 124.736 1034.4 124.736C1033.4 124.736 1032.62 125.088 1032.04 125.792C1031.48 126.496 1031.2 127.408 1031.2 128.528C1031.2 129.648 1031.48 130.56 1032.04 131.264C1032.62 131.952 1033.4 132.296 1034.4 132.296C1035.6 132.296 1036.5 131.744 1037.11 130.64ZM1054.21 123.344L1056.4 131.48L1058.75 123.344H1060.5L1057.36 134H1055.6L1053.4 125.912L1051.16 134H1049.41L1046.27 123.344H1048.07L1050.42 131.48L1052.6 123.344H1054.21ZM1070.19 124.688C1071.11 125.712 1071.56 127.04 1071.56 128.672C1071.56 130.304 1071.11 131.64 1070.19 132.68C1069.3 133.704 1068.12 134.216 1066.67 134.216C1065.21 134.216 1064.03 133.704 1063.11 132.68C1062.22 131.64 1061.77 130.304 1061.77 128.672C1061.77 127.04 1062.22 125.712 1063.11 124.688C1064.03 123.648 1065.21 123.128 1066.67 123.128C1068.12 123.128 1069.3 123.648 1070.19 124.688ZM1068.9 131.552C1069.46 130.816 1069.74 129.856 1069.74 128.672C1069.74 127.488 1069.46 126.536 1068.9 125.816C1068.35 125.08 1067.61 124.712 1066.67 124.712C1065.72 124.712 1064.97 125.08 1064.41 125.816C1063.87 126.536 1063.59 127.488 1063.59 128.672C1063.59 129.856 1063.87 130.816 1064.41 131.552C1064.97 132.272 1065.72 132.632 1066.67 132.632C1067.61 132.632 1068.35 132.272 1068.9 131.552ZM1079.47 123.296V125.144C1079.18 124.952 1078.78 124.856 1078.27 124.856C1077.69 124.856 1077.18 125.032 1076.73 125.384C1076.29 125.736 1075.97 126.224 1075.8 126.848V134H1074V123.344H1075.8V124.736C1076.04 124.272 1076.39 123.888 1076.85 123.584C1077.33 123.28 1077.86 123.128 1078.44 123.128C1078.9 123.128 1079.25 123.184 1079.47 123.296ZM1088.72 134L1084.66 129.08L1083.51 130.184V134H1081.71V118.4H1083.51V128.072L1088.38 123.344H1090.76L1085.96 127.952L1090.93 134H1088.72ZM1098.14 134V118.4H1099.94V124.688C1100.28 124.24 1100.72 123.872 1101.26 123.584C1101.82 123.28 1102.43 123.128 1103.08 123.128C1104.27 123.128 1105.19 123.48 1105.84 124.184C1106.5 124.888 1106.83 125.832 1106.83 127.016V134H1105V127.304C1105 126.536 1104.8 125.928 1104.4 125.48C1104.02 125.016 1103.44 124.784 1102.65 124.784C1102.03 124.784 1101.47 124.976 1100.97 125.36C1100.48 125.728 1100.13 126.2 1099.94 126.776V134H1098.14ZM1117.54 124.688C1118.45 125.712 1118.91 127.04 1118.91 128.672C1118.91 130.304 1118.45 131.64 1117.54 132.68C1116.64 133.704 1115.47 134.216 1114.01 134.216C1112.55 134.216 1111.37 133.704 1110.46 132.68C1109.56 131.64 1109.11 130.304 1109.11 128.672C1109.11 127.04 1109.56 125.712 1110.46 124.688C1111.37 123.648 1112.55 123.128 1114.01 123.128C1115.47 123.128 1116.64 123.648 1117.54 124.688ZM1116.24 131.552C1116.8 130.816 1117.08 129.856 1117.08 128.672C1117.08 127.488 1116.8 126.536 1116.24 125.816C1115.7 125.08 1114.95 124.712 1114.01 124.712C1113.07 124.712 1112.31 125.08 1111.75 125.816C1111.21 126.536 1110.94 127.488 1110.94 128.672C1110.94 129.856 1111.21 130.816 1111.75 131.552C1112.31 132.272 1113.07 132.632 1114.01 132.632C1114.95 132.632 1115.7 132.272 1116.24 131.552ZM1129.84 123.344V134H1128.01V132.656C1127.69 133.104 1127.26 133.48 1126.72 133.784C1126.17 134.072 1125.57 134.216 1124.92 134.216C1123.73 134.216 1122.81 133.864 1122.16 133.16C1121.52 132.456 1121.2 131.512 1121.2 130.328V123.344H1123.02V130.04C1123.02 130.824 1123.21 131.44 1123.6 131.888C1123.98 132.336 1124.57 132.56 1125.35 132.56C1125.96 132.56 1126.5 132.376 1126.98 132.008C1127.48 131.64 1127.82 131.16 1128.01 130.568V123.344H1129.84ZM1138.51 123.296V125.144C1138.22 124.952 1137.82 124.856 1137.31 124.856C1136.73 124.856 1136.22 125.032 1135.77 125.384C1135.33 125.736 1135.01 126.224 1134.84 126.848V134H1133.04V123.344H1134.84V124.736C1135.08 124.272 1135.43 123.888 1135.89 123.584C1136.37 123.28 1136.9 123.128 1137.48 123.128C1137.94 123.128 1138.29 123.184 1138.51 123.296ZM1139.79 131.072H1141.66C1142 132.16 1142.84 132.704 1144.18 132.704C1144.84 132.704 1145.37 132.576 1145.77 132.32C1146.17 132.048 1146.37 131.648 1146.37 131.12C1146.37 130.4 1145.84 129.904 1144.78 129.632L1142.67 129.08C1140.96 128.648 1140.1 127.712 1140.1 126.272C1140.1 125.344 1140.46 124.592 1141.18 124.016C1141.9 123.424 1142.81 123.128 1143.92 123.128C1145.07 123.128 1146 123.392 1146.7 123.92C1147.41 124.448 1147.85 125.192 1148.05 126.152H1146.25C1145.93 125.144 1145.14 124.64 1143.89 124.64C1143.33 124.64 1142.85 124.776 1142.45 125.048C1142.05 125.304 1141.85 125.68 1141.85 126.176C1141.85 126.528 1141.97 126.808 1142.19 127.016C1142.43 127.208 1142.81 127.376 1143.34 127.52L1145.41 128.024C1147.21 128.504 1148.12 129.496 1148.12 131C1148.12 131.992 1147.75 132.776 1147.01 133.352C1146.28 133.928 1145.33 134.216 1144.16 134.216C1142.99 134.216 1142.01 133.936 1141.21 133.376C1140.42 132.816 1139.95 132.048 1139.79 131.072ZM248.408 180.752V182H246.584V166.4H248.408V172.592C248.696 172.176 249.112 171.832 249.656 171.56C250.2 171.272 250.784 171.128 251.408 171.128C252.912 171.128 254.088 171.664 254.936 172.736C255.784 173.792 256.208 175.104 256.208 176.672C256.208 178.256 255.784 179.576 254.936 180.632C254.088 181.688 252.912 182.216 251.408 182.216C250.784 182.216 250.2 182.08 249.656 181.808C249.112 181.52 248.696 181.168 248.408 180.752ZM248.408 174.512V178.832C248.68 179.376 249.056 179.808 249.536 180.128C250.032 180.432 250.568 180.584 251.144 180.584C252.136 180.584 252.92 180.224 253.496 179.504C254.088 178.768 254.384 177.824 254.384 176.672C254.384 175.52 254.088 174.584 253.496 173.864C252.92 173.128 252.136 172.76 251.144 172.76C250.568 172.76 250.032 172.92 249.536 173.24C249.056 173.544 248.68 173.968 248.408 174.512ZM265.422 178.808H267.126C266.934 179.848 266.462 180.68 265.71 181.304C264.958 181.912 263.998 182.216 262.83 182.216C261.374 182.216 260.19 181.712 259.278 180.704C258.382 179.68 257.934 178.344 257.934 176.696C257.934 175.08 258.382 173.752 259.278 172.712C260.174 171.656 261.342 171.128 262.782 171.128C264.206 171.128 265.31 171.608 266.094 172.568C266.878 173.512 267.27 174.776 267.27 176.36V177.008H259.734C259.75 178.128 260.038 179.024 260.598 179.696C261.174 180.352 261.918 180.68 262.83 180.68C263.502 180.68 264.062 180.52 264.51 180.2C264.974 179.864 265.278 179.4 265.422 178.808ZM262.806 172.664C262.006 172.664 261.334 172.928 260.79 173.456C260.246 173.984 259.91 174.712 259.782 175.64H265.446C265.43 174.792 265.198 174.088 264.75 173.528C264.302 172.952 263.654 172.664 262.806 172.664ZM270.293 180.68C269.397 179.656 268.949 178.32 268.949 176.672C268.949 175.024 269.397 173.688 270.293 172.664C271.189 171.64 272.357 171.128 273.797 171.128C274.965 171.128 275.917 171.44 276.653 172.064C277.405 172.688 277.877 173.52 278.069 174.56H276.221C276.093 173.984 275.813 173.536 275.381 173.216C274.965 172.88 274.437 172.712 273.797 172.712C272.885 172.712 272.149 173.08 271.589 173.816C271.045 174.552 270.773 175.504 270.773 176.672C270.773 177.84 271.045 178.792 271.589 179.528C272.149 180.264 272.885 180.632 273.797 180.632C274.437 180.632 274.965 180.472 275.381 180.152C275.813 179.816 276.093 179.36 276.221 178.784H278.069C277.877 179.824 277.405 180.656 276.653 181.28C275.917 181.904 274.965 182.216 273.797 182.216C272.357 182.216 271.189 181.704 270.293 180.68ZM288.156 182H286.428V181.208C286.204 181.448 285.828 181.672 285.3 181.88C284.772 182.088 284.212 182.192 283.62 182.192C282.5 182.192 281.556 181.88 280.788 181.256C280.036 180.632 279.66 179.808 279.66 178.784C279.66 177.808 280.052 177.008 280.836 176.384C281.62 175.76 282.588 175.448 283.74 175.448C284.268 175.448 284.788 175.536 285.3 175.712C285.812 175.888 286.188 176.088 286.428 176.312V174.968C286.428 174.28 286.22 173.728 285.804 173.312C285.404 172.896 284.828 172.688 284.076 172.688C282.956 172.688 282.228 173.176 281.892 174.152H280.116C280.292 173.256 280.74 172.528 281.46 171.968C282.196 171.408 283.076 171.128 284.1 171.128C285.364 171.128 286.356 171.464 287.076 172.136C287.796 172.808 288.156 173.728 288.156 174.896V182ZM286.428 179.36V178.256C286.268 177.872 285.948 177.56 285.468 177.32C285.004 177.064 284.492 176.936 283.932 176.936C283.228 176.936 282.628 177.096 282.132 177.416C281.636 177.736 281.388 178.192 281.388 178.784C281.388 179.392 281.636 179.864 282.132 180.2C282.628 180.52 283.228 180.68 283.932 180.68C284.492 180.68 285.004 180.56 285.468 180.32C285.948 180.064 286.268 179.744 286.428 179.36ZM299.729 171.344V182H297.905V180.656C297.585 181.104 297.153 181.48 296.609 181.784C296.065 182.072 295.465 182.216 294.809 182.216C293.625 182.216 292.705 181.864 292.049 181.16C291.409 180.456 291.089 179.512 291.089 178.328V171.344H292.913V178.04C292.913 178.824 293.105 179.44 293.489 179.888C293.873 180.336 294.457 180.56 295.241 180.56C295.849 180.56 296.393 180.376 296.873 180.008C297.369 179.64 297.713 179.16 297.905 178.568V171.344H299.729ZM302.04 179.072H303.912C304.248 180.16 305.088 180.704 306.432 180.704C307.088 180.704 307.616 180.576 308.016 180.32C308.416 180.048 308.616 179.648 308.616 179.12C308.616 178.4 308.088 177.904 307.032 177.632L304.92 177.08C303.208 176.648 302.352 175.712 302.352 174.272C302.352 173.344 302.712 172.592 303.432 172.016C304.152 171.424 305.064 171.128 306.168 171.128C307.32 171.128 308.248 171.392 308.952 171.92C309.656 172.448 310.104 173.192 310.296 174.152H308.496C308.176 173.144 307.392 172.64 306.144 172.64C305.584 172.64 305.104 172.776 304.704 173.048C304.304 173.304 304.104 173.68 304.104 174.176C304.104 174.528 304.216 174.808 304.44 175.016C304.68 175.208 305.064 175.376 305.592 175.52L307.656 176.024C309.464 176.504 310.368 177.496 310.368 179C310.368 179.992 310 180.776 309.264 181.352C308.528 181.928 307.576 182.216 306.408 182.216C305.24 182.216 304.256 181.936 303.456 181.376C302.672 180.816 302.2 180.048 302.04 179.072ZM319.586 178.808H321.29C321.098 179.848 320.626 180.68 319.874 181.304C319.122 181.912 318.162 182.216 316.994 182.216C315.538 182.216 314.354 181.712 313.442 180.704C312.546 179.68 312.098 178.344 312.098 176.696C312.098 175.08 312.546 173.752 313.442 172.712C314.338 171.656 315.506 171.128 316.946 171.128C318.37 171.128 319.474 171.608 320.258 172.568C321.042 173.512 321.434 174.776 321.434 176.36V177.008H313.898C313.914 178.128 314.202 179.024 314.762 179.696C315.338 180.352 316.082 180.68 316.994 180.68C317.666 180.68 318.226 180.52 318.674 180.2C319.138 179.864 319.442 179.4 319.586 178.808ZM316.97 172.664C316.17 172.664 315.498 172.928 314.954 173.456C314.41 173.984 314.074 174.712 313.946 175.64H319.61C319.594 174.792 319.362 174.088 318.914 173.528C318.466 172.952 317.818 172.664 316.97 172.664ZM329.131 182V166.4H330.931V172.688C331.267 172.24 331.707 171.872 332.251 171.584C332.811 171.28 333.419 171.128 334.075 171.128C335.259 171.128 336.179 171.48 336.835 172.184C337.491 172.888 337.819 173.832 337.819 175.016V182H335.995V175.304C335.995 174.536 335.795 173.928 335.395 173.48C335.011 173.016 334.427 172.784 333.643 172.784C333.019 172.784 332.459 172.976 331.963 173.36C331.467 173.728 331.123 174.2 330.931 174.776V182H329.131ZM342.674 171.344V182H340.874V171.344H342.674ZM342.578 167.312C342.818 167.536 342.938 167.808 342.938 168.128C342.938 168.448 342.818 168.72 342.578 168.944C342.354 169.168 342.082 169.28 341.762 169.28C341.442 169.28 341.17 169.168 340.946 168.944C340.722 168.72 340.61 168.448 340.61 168.128C340.61 167.808 340.722 167.536 340.946 167.312C341.17 167.088 341.442 166.976 341.762 166.976C342.082 166.976 342.354 167.088 342.578 167.312ZM345.001 179.072H346.873C347.209 180.16 348.049 180.704 349.393 180.704C350.049 180.704 350.577 180.576 350.977 180.32C351.377 180.048 351.577 179.648 351.577 179.12C351.577 178.4 351.049 177.904 349.993 177.632L347.881 177.08C346.169 176.648 345.313 175.712 345.313 174.272C345.313 173.344 345.673 172.592 346.393 172.016C347.113 171.424 348.025 171.128 349.129 171.128C350.281 171.128 351.209 171.392 351.913 171.92C352.617 172.448 353.065 173.192 353.257 174.152H351.457C351.137 173.144 350.353 172.64 349.105 172.64C348.545 172.64 348.065 172.776 347.665 173.048C347.265 173.304 347.065 173.68 347.065 174.176C347.065 174.528 347.177 174.808 347.401 175.016C347.641 175.208 348.025 175.376 348.553 175.52L350.617 176.024C352.425 176.504 353.329 177.496 353.329 179C353.329 179.992 352.961 180.776 352.225 181.352C351.489 181.928 350.537 182.216 349.369 182.216C348.201 182.216 347.217 181.936 346.417 181.376C345.633 180.816 345.161 180.048 345.001 179.072ZM368.132 182L364.076 177.08L362.924 178.184V182H361.124V166.4H362.924V176.072L367.796 171.344H370.172L365.372 175.952L370.34 182H368.132ZM374.056 171.344V182H372.256V171.344H374.056ZM373.96 167.312C374.2 167.536 374.32 167.808 374.32 168.128C374.32 168.448 374.2 168.72 373.96 168.944C373.736 169.168 373.464 169.28 373.144 169.28C372.824 169.28 372.552 169.168 372.328 168.944C372.104 168.72 371.992 168.448 371.992 168.128C371.992 167.808 372.104 167.536 372.328 167.312C372.552 167.088 372.824 166.976 373.144 166.976C373.464 166.976 373.736 167.088 373.96 167.312ZM377.272 182V171.344H379.072V172.688C379.408 172.24 379.848 171.872 380.392 171.584C380.952 171.28 381.56 171.128 382.216 171.128C383.4 171.128 384.32 171.48 384.976 172.184C385.632 172.888 385.96 173.832 385.96 175.016V182H384.136V175.304C384.136 174.536 383.936 173.928 383.536 173.48C383.152 173.016 382.568 172.784 381.784 172.784C381.16 172.784 380.6 172.976 380.104 173.36C379.608 173.728 379.264 174.2 379.072 174.776V182H377.272ZM396.046 182V180.752C395.758 181.168 395.342 181.52 394.798 181.808C394.254 182.08 393.67 182.216 393.046 182.216C391.542 182.216 390.366 181.688 389.518 180.632C388.67 179.576 388.246 178.256 388.246 176.672C388.246 175.104 388.67 173.792 389.518 172.736C390.366 171.664 391.542 171.128 393.046 171.128C393.67 171.128 394.254 171.272 394.798 171.56C395.342 171.832 395.758 172.176 396.046 172.592V166.4H397.87V182H396.046ZM396.046 178.832V174.512C395.774 173.968 395.39 173.544 394.894 173.24C394.414 172.92 393.886 172.76 393.31 172.76C392.318 172.76 391.526 173.128 390.934 173.864C390.358 174.584 390.07 175.52 390.07 176.672C390.07 177.824 390.358 178.768 390.934 179.504C391.526 180.224 392.318 180.584 393.31 180.584C393.886 180.584 394.414 180.432 394.894 180.128C395.39 179.808 395.774 179.376 396.046 178.832ZM413.126 171.344L415.31 179.48L417.662 171.344H419.414L416.27 182H414.518L412.31 173.912L410.078 182H408.326L405.182 171.344H406.982L409.334 179.48L411.518 171.344H413.126ZM429.108 172.688C430.02 173.712 430.476 175.04 430.476 176.672C430.476 178.304 430.02 179.64 429.108 180.68C428.212 181.704 427.036 182.216 425.58 182.216C424.124 182.216 422.94 181.704 422.028 180.68C421.132 179.64 420.684 178.304 420.684 176.672C420.684 175.04 421.132 173.712 422.028 172.688C422.94 171.648 424.124 171.128 425.58 171.128C427.036 171.128 428.212 171.648 429.108 172.688ZM427.812 179.552C428.372 178.816 428.652 177.856 428.652 176.672C428.652 175.488 428.372 174.536 427.812 173.816C427.268 173.08 426.524 172.712 425.58 172.712C424.636 172.712 423.884 173.08 423.324 173.816C422.78 174.536 422.508 175.488 422.508 176.672C422.508 177.856 422.78 178.816 423.324 179.552C423.884 180.272 424.636 180.632 425.58 180.632C426.524 180.632 427.268 180.272 427.812 179.552ZM438.385 171.296V173.144C438.097 172.952 437.697 172.856 437.185 172.856C436.609 172.856 436.097 173.032 435.649 173.384C435.201 173.736 434.889 174.224 434.713 174.848V182H432.913V171.344H434.713V172.736C434.953 172.272 435.305 171.888 435.769 171.584C436.249 171.28 436.777 171.128 437.353 171.128C437.817 171.128 438.161 171.184 438.385 171.296ZM447.632 182L443.576 177.08L442.424 178.184V182H440.624V166.4H442.424V176.072L447.296 171.344H449.672L444.872 175.952L449.84 182H447.632ZM464.085 182V180.752C463.797 181.168 463.381 181.52 462.837 181.808C462.293 182.08 461.709 182.216 461.085 182.216C459.581 182.216 458.405 181.688 457.557 180.632C456.709 179.576 456.285 178.256 456.285 176.672C456.285 175.104 456.709 173.792 457.557 172.736C458.405 171.664 459.581 171.128 461.085 171.128C461.709 171.128 462.293 171.272 462.837 171.56C463.381 171.832 463.797 172.176 464.085 172.592V166.4H465.909V182H464.085ZM464.085 178.832V174.512C463.813 173.968 463.429 173.544 462.933 173.24C462.453 172.92 461.925 172.76 461.349 172.76C460.357 172.76 459.565 173.128 458.973 173.864C458.397 174.584 458.109 175.52 458.109 176.672C458.109 177.824 458.397 178.768 458.973 179.504C459.565 180.224 460.357 180.584 461.349 180.584C461.925 180.584 462.453 180.432 462.933 180.128C463.429 179.808 463.813 179.376 464.085 178.832ZM476.756 172.688C477.668 173.712 478.124 175.04 478.124 176.672C478.124 178.304 477.668 179.64 476.756 180.68C475.86 181.704 474.684 182.216 473.228 182.216C471.772 182.216 470.588 181.704 469.676 180.68C468.78 179.64 468.332 178.304 468.332 176.672C468.332 175.04 468.78 173.712 469.676 172.688C470.588 171.648 471.772 171.128 473.228 171.128C474.684 171.128 475.86 171.648 476.756 172.688ZM475.46 179.552C476.02 178.816 476.3 177.856 476.3 176.672C476.3 175.488 476.02 174.536 475.46 173.816C474.916 173.08 474.172 172.712 473.228 172.712C472.284 172.712 471.532 173.08 470.972 173.816C470.428 174.536 470.156 175.488 470.156 176.672C470.156 177.856 470.428 178.816 470.972 179.552C471.532 180.272 472.284 180.632 473.228 180.632C474.172 180.632 474.916 180.272 475.46 179.552ZM487.328 178.808H489.032C488.84 179.848 488.368 180.68 487.616 181.304C486.864 181.912 485.904 182.216 484.736 182.216C483.28 182.216 482.096 181.712 481.184 180.704C480.288 179.68 479.84 178.344 479.84 176.696C479.84 175.08 480.288 173.752 481.184 172.712C482.08 171.656 483.248 171.128 484.688 171.128C486.112 171.128 487.216 171.608 488 172.568C488.784 173.512 489.176 174.776 489.176 176.36V177.008H481.64C481.656 178.128 481.944 179.024 482.504 179.696C483.08 180.352 483.824 180.68 484.736 180.68C485.408 180.68 485.968 180.52 486.416 180.2C486.88 179.864 487.184 179.4 487.328 178.808ZM484.712 172.664C483.912 172.664 483.24 172.928 482.696 173.456C482.152 173.984 481.816 174.712 481.688 175.64H487.352C487.336 174.792 487.104 174.088 486.656 173.528C486.208 172.952 485.56 172.664 484.712 172.664ZM490.736 179.072H492.608C492.944 180.16 493.784 180.704 495.128 180.704C495.784 180.704 496.312 180.576 496.712 180.32C497.112 180.048 497.312 179.648 497.312 179.12C497.312 178.4 496.784 177.904 495.728 177.632L493.616 177.08C491.904 176.648 491.048 175.712 491.048 174.272C491.048 173.344 491.408 172.592 492.128 172.016C492.848 171.424 493.76 171.128 494.864 171.128C496.016 171.128 496.944 171.392 497.648 171.92C498.352 172.448 498.8 173.192 498.992 174.152H497.192C496.872 173.144 496.088 172.64 494.84 172.64C494.28 172.64 493.8 172.776 493.4 173.048C493 173.304 492.8 173.68 492.8 174.176C492.8 174.528 492.912 174.808 493.136 175.016C493.376 175.208 493.76 175.376 494.288 175.52L496.352 176.024C498.16 176.504 499.064 177.496 499.064 179C499.064 179.992 498.696 180.776 497.96 181.352C497.224 181.928 496.272 182.216 495.104 182.216C493.936 182.216 492.952 181.936 492.152 181.376C491.368 180.816 490.896 180.048 490.736 179.072ZM506.858 182V171.344H508.658V172.688C508.994 172.24 509.434 171.872 509.978 171.584C510.538 171.28 511.146 171.128 511.802 171.128C512.986 171.128 513.906 171.48 514.562 172.184C515.218 172.888 515.546 173.832 515.546 175.016V182H513.722V175.304C513.722 174.536 513.522 173.928 513.122 173.48C512.738 173.016 512.154 172.784 511.37 172.784C510.746 172.784 510.186 172.976 509.69 173.36C509.194 173.728 508.85 174.2 508.658 174.776V182H506.858ZM526.256 172.688C527.168 173.712 527.624 175.04 527.624 176.672C527.624 178.304 527.168 179.64 526.256 180.68C525.36 181.704 524.184 182.216 522.728 182.216C521.272 182.216 520.088 181.704 519.176 180.68C518.28 179.64 517.832 178.304 517.832 176.672C517.832 175.04 518.28 173.712 519.176 172.688C520.088 171.648 521.272 171.128 522.728 171.128C524.184 171.128 525.36 171.648 526.256 172.688ZM524.96 179.552C525.52 178.816 525.8 177.856 525.8 176.672C525.8 175.488 525.52 174.536 524.96 173.816C524.416 173.08 523.672 172.712 522.728 172.712C521.784 172.712 521.032 173.08 520.472 173.816C519.928 174.536 519.656 175.488 519.656 176.672C519.656 177.856 519.928 178.816 520.472 179.552C521.032 180.272 521.784 180.632 522.728 180.632C523.672 180.632 524.416 180.272 524.96 179.552ZM530.565 179.312V172.88H528.837V171.344H530.565V168.536H532.365V171.344H534.933V172.88H532.365V179.12C532.365 180.112 532.837 180.608 533.781 180.608C534.277 180.608 534.741 180.464 535.173 180.176V181.856C534.725 182.096 534.165 182.216 533.493 182.216C532.597 182.216 531.885 181.976 531.357 181.496C530.829 181 530.565 180.272 530.565 179.312ZM550.703 182H548.975V181.208C548.751 181.448 548.375 181.672 547.847 181.88C547.319 182.088 546.759 182.192 546.167 182.192C545.047 182.192 544.103 181.88 543.335 181.256C542.583 180.632 542.207 179.808 542.207 178.784C542.207 177.808 542.599 177.008 543.383 176.384C544.167 175.76 545.135 175.448 546.287 175.448C546.815 175.448 547.335 175.536 547.847 175.712C548.359 175.888 548.735 176.088 548.975 176.312V174.968C548.975 174.28 548.767 173.728 548.351 173.312C547.951 172.896 547.375 172.688 546.623 172.688C545.503 172.688 544.775 173.176 544.439 174.152H542.663C542.839 173.256 543.287 172.528 544.007 171.968C544.743 171.408 545.623 171.128 546.647 171.128C547.911 171.128 548.903 171.464 549.623 172.136C550.343 172.808 550.703 173.728 550.703 174.896V182ZM548.975 179.36V178.256C548.815 177.872 548.495 177.56 548.015 177.32C547.551 177.064 547.039 176.936 546.479 176.936C545.775 176.936 545.175 177.096 544.679 177.416C544.183 177.736 543.935 178.192 543.935 178.784C543.935 179.392 544.183 179.864 544.679 180.2C545.175 180.52 545.775 180.68 546.479 180.68C547.039 180.68 547.551 180.56 548.015 180.32C548.495 180.064 548.815 179.744 548.975 179.36ZM555.58 166.4V182H553.78V166.4H555.58ZM560.596 166.4V182H558.796V166.4H560.596ZM571.467 172.688C572.379 173.712 572.835 175.04 572.835 176.672C572.835 178.304 572.379 179.64 571.467 180.68C570.571 181.704 569.395 182.216 567.939 182.216C566.483 182.216 565.299 181.704 564.387 180.68C563.491 179.64 563.043 178.304 563.043 176.672C563.043 175.04 563.491 173.712 564.387 172.688C565.299 171.648 566.483 171.128 567.939 171.128C569.395 171.128 570.571 171.648 571.467 172.688ZM570.171 179.552C570.731 178.816 571.011 177.856 571.011 176.672C571.011 175.488 570.731 174.536 570.171 173.816C569.627 173.08 568.883 172.712 567.939 172.712C566.995 172.712 566.243 173.08 565.683 173.816C565.139 174.536 564.867 175.488 564.867 176.672C564.867 177.856 565.139 178.816 565.683 179.552C566.243 180.272 566.995 180.632 567.939 180.632C568.883 180.632 569.627 180.272 570.171 179.552ZM582.04 171.344L584.224 179.48L586.576 171.344H588.328L585.184 182H583.432L581.224 173.912L578.992 182H577.24L574.096 171.344H575.896L578.248 179.48L580.432 171.344H582.04ZM597.463 166.4V182H595.663V166.4H597.463ZM607.398 178.808H609.102C608.91 179.848 608.438 180.68 607.686 181.304C606.934 181.912 605.974 182.216 604.806 182.216C603.35 182.216 602.166 181.712 601.254 180.704C600.358 179.68 599.91 178.344 599.91 176.696C599.91 175.08 600.358 173.752 601.254 172.712C602.15 171.656 603.318 171.128 604.758 171.128C606.182 171.128 607.286 171.608 608.07 172.568C608.854 173.512 609.246 174.776 609.246 176.36V177.008H601.71C601.726 178.128 602.014 179.024 602.574 179.696C603.15 180.352 603.894 180.68 604.806 180.68C605.478 180.68 606.038 180.52 606.486 180.2C606.95 179.864 607.254 179.4 607.398 178.808ZM604.782 172.664C603.982 172.664 603.31 172.928 602.766 173.456C602.222 173.984 601.886 174.712 601.758 175.64H607.422C607.406 174.792 607.174 174.088 606.726 173.528C606.278 172.952 605.63 172.664 604.782 172.664ZM619.375 182H617.647V181.208C617.423 181.448 617.047 181.672 616.519 181.88C615.991 182.088 615.431 182.192 614.839 182.192C613.719 182.192 612.775 181.88 612.007 181.256C611.255 180.632 610.879 179.808 610.879 178.784C610.879 177.808 611.271 177.008 612.055 176.384C612.839 175.76 613.807 175.448 614.959 175.448C615.487 175.448 616.007 175.536 616.519 175.712C617.031 175.888 617.407 176.088 617.647 176.312V174.968C617.647 174.28 617.439 173.728 617.023 173.312C616.623 172.896 616.047 172.688 615.295 172.688C614.175 172.688 613.447 173.176 613.111 174.152H611.335C611.511 173.256 611.959 172.528 612.679 171.968C613.415 171.408 614.295 171.128 615.319 171.128C616.583 171.128 617.575 171.464 618.295 172.136C619.015 172.808 619.375 173.728 619.375 174.896V182ZM617.647 179.36V178.256C617.487 177.872 617.167 177.56 616.687 177.32C616.223 177.064 615.711 176.936 615.151 176.936C614.447 176.936 613.847 177.096 613.351 177.416C612.855 177.736 612.607 178.192 612.607 178.784C612.607 179.392 612.855 179.864 613.351 180.2C613.847 180.52 614.447 180.68 615.151 180.68C615.711 180.68 616.223 180.56 616.687 180.32C617.167 180.064 617.487 179.744 617.647 179.36ZM626.992 182H625.216L621.088 171.344H623.032L626.152 179.72L629.248 171.344H631.144L626.992 182ZM639.719 178.808H641.423C641.231 179.848 640.759 180.68 640.007 181.304C639.255 181.912 638.295 182.216 637.127 182.216C635.671 182.216 634.487 181.712 633.575 180.704C632.679 179.68 632.231 178.344 632.231 176.696C632.231 175.08 632.679 173.752 633.575 172.712C634.471 171.656 635.639 171.128 637.079 171.128C638.503 171.128 639.607 171.608 640.391 172.568C641.175 173.512 641.567 174.776 641.567 176.36V177.008H634.031C634.047 178.128 634.335 179.024 634.895 179.696C635.471 180.352 636.215 180.68 637.127 180.68C637.799 180.68 638.359 180.52 638.807 180.2C639.271 179.864 639.575 179.4 639.719 178.808ZM637.103 172.664C636.303 172.664 635.631 172.928 635.087 173.456C634.543 173.984 634.207 174.712 634.079 175.64H639.743C639.727 174.792 639.495 174.088 639.047 173.528C638.599 172.952 637.951 172.664 637.103 172.664ZM649.264 182V166.4H651.064V172.688C651.4 172.24 651.84 171.872 652.384 171.584C652.944 171.28 653.552 171.128 654.208 171.128C655.392 171.128 656.312 171.48 656.968 172.184C657.624 172.888 657.952 173.832 657.952 175.016V182H656.128V175.304C656.128 174.536 655.928 173.928 655.528 173.48C655.144 173.016 654.56 172.784 653.776 172.784C653.152 172.784 652.592 172.976 652.096 173.36C651.6 173.728 651.256 174.2 651.064 174.776V182H649.264ZM662.806 171.344V182H661.006V171.344H662.806ZM662.71 167.312C662.95 167.536 663.07 167.808 663.07 168.128C663.07 168.448 662.95 168.72 662.71 168.944C662.486 169.168 662.214 169.28 661.894 169.28C661.574 169.28 661.302 169.168 661.078 168.944C660.854 168.72 660.742 168.448 660.742 168.128C660.742 167.808 660.854 167.536 661.078 167.312C661.302 167.088 661.574 166.976 661.894 166.976C662.214 166.976 662.486 167.088 662.71 167.312ZM665.134 179.072H667.006C667.342 180.16 668.182 180.704 669.526 180.704C670.182 180.704 670.71 180.576 671.11 180.32C671.51 180.048 671.71 179.648 671.71 179.12C671.71 178.4 671.182 177.904 670.126 177.632L668.014 177.08C666.302 176.648 665.446 175.712 665.446 174.272C665.446 173.344 665.806 172.592 666.526 172.016C667.246 171.424 668.158 171.128 669.262 171.128C670.414 171.128 671.342 171.392 672.046 171.92C672.75 172.448 673.198 173.192 673.39 174.152H671.59C671.27 173.144 670.486 172.64 669.238 172.64C668.678 172.64 668.198 172.776 667.798 173.048C667.398 173.304 667.198 173.68 667.198 174.176C667.198 174.528 667.31 174.808 667.534 175.016C667.774 175.208 668.158 175.376 668.686 175.52L670.75 176.024C672.558 176.504 673.462 177.496 673.462 179C673.462 179.992 673.094 180.776 672.358 181.352C671.622 181.928 670.67 182.216 669.502 182.216C668.334 182.216 667.35 181.936 666.55 181.376C665.766 180.816 665.294 180.048 665.134 179.072ZM688.024 171.344L690.208 179.48L692.56 171.344H694.312L691.168 182H689.416L687.208 173.912L684.976 182H683.224L680.08 171.344H681.88L684.232 179.48L686.416 171.344H688.024ZM704.006 172.688C704.918 173.712 705.374 175.04 705.374 176.672C705.374 178.304 704.918 179.64 704.006 180.68C703.11 181.704 701.934 182.216 700.478 182.216C699.022 182.216 697.838 181.704 696.926 180.68C696.03 179.64 695.582 178.304 695.582 176.672C695.582 175.04 696.03 173.712 696.926 172.688C697.838 171.648 699.022 171.128 700.478 171.128C701.934 171.128 703.11 171.648 704.006 172.688ZM702.71 179.552C703.27 178.816 703.55 177.856 703.55 176.672C703.55 175.488 703.27 174.536 702.71 173.816C702.166 173.08 701.422 172.712 700.478 172.712C699.534 172.712 698.782 173.08 698.222 173.816C697.678 174.536 697.406 175.488 697.406 176.672C697.406 177.856 697.678 178.816 698.222 179.552C698.782 180.272 699.534 180.632 700.478 180.632C701.422 180.632 702.166 180.272 702.71 179.552ZM713.283 171.296V173.144C712.995 172.952 712.595 172.856 712.083 172.856C711.507 172.856 710.995 173.032 710.547 173.384C710.099 173.736 709.787 174.224 709.611 174.848V182H707.811V171.344H709.611V172.736C709.851 172.272 710.203 171.888 710.667 171.584C711.147 171.28 711.675 171.128 712.251 171.128C712.715 171.128 713.059 171.184 713.283 171.296ZM722.53 182L718.474 177.08L717.322 178.184V182H715.522V166.4H717.322V176.072L722.194 171.344H724.57L719.77 175.952L724.738 182H722.53ZM725.603 179.072H727.475C727.811 180.16 728.651 180.704 729.995 180.704C730.651 180.704 731.179 180.576 731.579 180.32C731.979 180.048 732.179 179.648 732.179 179.12C732.179 178.4 731.651 177.904 730.595 177.632L728.483 177.08C726.771 176.648 725.915 175.712 725.915 174.272C725.915 173.344 726.275 172.592 726.995 172.016C727.715 171.424 728.627 171.128 729.731 171.128C730.883 171.128 731.811 171.392 732.515 171.92C733.219 172.448 733.667 173.192 733.859 174.152H732.059C731.739 173.144 730.955 172.64 729.707 172.64C729.147 172.64 728.667 172.776 728.267 173.048C727.867 173.304 727.667 173.68 727.667 174.176C727.667 174.528 727.779 174.808 728.003 175.016C728.243 175.208 728.627 175.376 729.155 175.52L731.219 176.024C733.027 176.504 733.931 177.496 733.931 179C733.931 179.992 733.563 180.776 732.827 181.352C732.091 181.928 731.139 182.216 729.971 182.216C728.803 182.216 727.819 181.936 727.019 181.376C726.235 180.816 725.763 180.048 725.603 179.072ZM738.228 180.752V186.08H736.428V171.344H738.228V172.592C738.532 172.176 738.948 171.832 739.476 171.56C740.02 171.272 740.604 171.128 741.228 171.128C742.732 171.128 743.908 171.664 744.756 172.736C745.604 173.792 746.028 175.104 746.028 176.672C746.028 178.24 745.604 179.56 744.756 180.632C743.908 181.688 742.732 182.216 741.228 182.216C740.604 182.216 740.02 182.08 739.476 181.808C738.948 181.52 738.532 181.168 738.228 180.752ZM738.228 174.512V178.832C738.5 179.376 738.876 179.808 739.356 180.128C739.852 180.432 740.388 180.584 740.964 180.584C741.956 180.584 742.74 180.224 743.316 179.504C743.908 178.768 744.204 177.824 744.204 176.672C744.204 175.52 743.908 174.584 743.316 173.864C742.74 173.128 741.956 172.76 740.964 172.76C740.388 172.76 739.852 172.92 739.356 173.24C738.876 173.544 738.5 173.968 738.228 174.512ZM756.203 182H754.475V181.208C754.251 181.448 753.875 181.672 753.347 181.88C752.819 182.088 752.259 182.192 751.667 182.192C750.547 182.192 749.603 181.88 748.835 181.256C748.083 180.632 747.707 179.808 747.707 178.784C747.707 177.808 748.099 177.008 748.883 176.384C749.667 175.76 750.635 175.448 751.787 175.448C752.315 175.448 752.835 175.536 753.347 175.712C753.859 175.888 754.235 176.088 754.475 176.312V174.968C754.475 174.28 754.267 173.728 753.851 173.312C753.451 172.896 752.875 172.688 752.123 172.688C751.003 172.688 750.275 173.176 749.939 174.152H748.163C748.339 173.256 748.787 172.528 749.507 171.968C750.243 171.408 751.123 171.128 752.147 171.128C753.411 171.128 754.403 171.464 755.123 172.136C755.843 172.808 756.203 173.728 756.203 174.896V182ZM754.475 179.36V178.256C754.315 177.872 753.995 177.56 753.515 177.32C753.051 177.064 752.539 176.936 751.979 176.936C751.275 176.936 750.675 177.096 750.179 177.416C749.683 177.736 749.435 178.192 749.435 178.784C749.435 179.392 749.683 179.864 750.179 180.2C750.675 180.52 751.275 180.68 751.979 180.68C752.539 180.68 753.051 180.56 753.515 180.32C753.995 180.064 754.315 179.744 754.475 179.36ZM759.856 180.68C758.96 179.656 758.512 178.32 758.512 176.672C758.512 175.024 758.96 173.688 759.856 172.664C760.752 171.64 761.92 171.128 763.36 171.128C764.528 171.128 765.48 171.44 766.216 172.064C766.968 172.688 767.44 173.52 767.632 174.56H765.784C765.656 173.984 765.376 173.536 764.944 173.216C764.528 172.88 764 172.712 763.36 172.712C762.448 172.712 761.712 173.08 761.152 173.816C760.608 174.552 760.336 175.504 760.336 176.672C760.336 177.84 760.608 178.792 761.152 179.528C761.712 180.264 762.448 180.632 763.36 180.632C764 180.632 764.528 180.472 764.944 180.152C765.376 179.816 765.656 179.36 765.784 178.784H767.632C767.44 179.824 766.968 180.656 766.216 181.28C765.48 181.904 764.528 182.216 763.36 182.216C761.92 182.216 760.752 181.704 759.856 180.68ZM776.664 178.808H778.368C778.176 179.848 777.704 180.68 776.952 181.304C776.2 181.912 775.24 182.216 774.072 182.216C772.616 182.216 771.432 181.712 770.52 180.704C769.624 179.68 769.176 178.344 769.176 176.696C769.176 175.08 769.624 173.752 770.52 172.712C771.416 171.656 772.584 171.128 774.024 171.128C775.448 171.128 776.552 171.608 777.336 172.568C778.12 173.512 778.512 174.776 778.512 176.36V177.008H770.976C770.992 178.128 771.28 179.024 771.84 179.696C772.416 180.352 773.16 180.68 774.072 180.68C774.744 180.68 775.304 180.52 775.752 180.2C776.216 179.864 776.52 179.4 776.664 178.808ZM774.048 172.664C773.248 172.664 772.576 172.928 772.032 173.456C771.488 173.984 771.152 174.712 771.024 175.64H776.688C776.672 174.792 776.44 174.088 775.992 173.528C775.544 172.952 774.896 172.664 774.048 172.664ZM791.538 166.424V168.056C791.234 167.864 790.858 167.768 790.41 167.768C789.866 167.768 789.434 167.936 789.114 168.272C788.81 168.608 788.658 169.088 788.658 169.712V171.344H791.058V172.88H788.658V182H786.882V172.88H785.082V171.344H786.882V169.568C786.882 168.528 787.186 167.704 787.794 167.096C788.402 166.488 789.186 166.184 790.146 166.184C790.69 166.184 791.154 166.264 791.538 166.424ZM800.639 172.688C801.551 173.712 802.007 175.04 802.007 176.672C802.007 178.304 801.551 179.64 800.639 180.68C799.743 181.704 798.567 182.216 797.111 182.216C795.655 182.216 794.471 181.704 793.559 180.68C792.663 179.64 792.215 178.304 792.215 176.672C792.215 175.04 792.663 173.712 793.559 172.688C794.471 171.648 795.655 171.128 797.111 171.128C798.567 171.128 799.743 171.648 800.639 172.688ZM799.343 179.552C799.903 178.816 800.183 177.856 800.183 176.672C800.183 175.488 799.903 174.536 799.343 173.816C798.799 173.08 798.055 172.712 797.111 172.712C796.167 172.712 795.415 173.08 794.855 173.816C794.311 174.536 794.039 175.488 794.039 176.672C794.039 177.856 794.311 178.816 794.855 179.552C795.415 180.272 796.167 180.632 797.111 180.632C798.055 180.632 798.799 180.272 799.343 179.552ZM809.916 171.296V173.144C809.628 172.952 809.228 172.856 808.716 172.856C808.14 172.856 807.628 173.032 807.18 173.384C806.732 173.736 806.42 174.224 806.244 174.848V182H804.444V171.344H806.244V172.736C806.484 172.272 806.836 171.888 807.3 171.584C807.78 171.28 808.308 171.128 808.884 171.128C809.348 171.128 809.692 171.184 809.916 171.296ZM825.18 182H823.452V181.208C823.228 181.448 822.852 181.672 822.324 181.88C821.796 182.088 821.236 182.192 820.644 182.192C819.524 182.192 818.58 181.88 817.812 181.256C817.06 180.632 816.684 179.808 816.684 178.784C816.684 177.808 817.076 177.008 817.86 176.384C818.644 175.76 819.612 175.448 820.764 175.448C821.292 175.448 821.812 175.536 822.324 175.712C822.836 175.888 823.212 176.088 823.452 176.312V174.968C823.452 174.28 823.244 173.728 822.828 173.312C822.428 172.896 821.852 172.688 821.1 172.688C819.98 172.688 819.252 173.176 818.916 174.152H817.14C817.316 173.256 817.764 172.528 818.484 171.968C819.22 171.408 820.1 171.128 821.124 171.128C822.388 171.128 823.38 171.464 824.1 172.136C824.82 172.808 825.18 173.728 825.18 174.896V182ZM823.452 179.36V178.256C823.292 177.872 822.972 177.56 822.492 177.32C822.028 177.064 821.516 176.936 820.956 176.936C820.252 176.936 819.652 177.096 819.156 177.416C818.66 177.736 818.412 178.192 818.412 178.784C818.412 179.392 818.66 179.864 819.156 180.2C819.652 180.52 820.252 180.68 820.956 180.68C821.516 180.68 822.028 180.56 822.492 180.32C822.972 180.064 823.292 179.744 823.452 179.36ZM835.353 166.4V182H833.553V166.4H835.353ZM846.225 172.688C847.137 173.712 847.593 175.04 847.593 176.672C847.593 178.304 847.137 179.64 846.225 180.68C845.329 181.704 844.153 182.216 842.697 182.216C841.241 182.216 840.057 181.704 839.145 180.68C838.249 179.64 837.801 178.304 837.801 176.672C837.801 175.04 838.249 173.712 839.145 172.688C840.057 171.648 841.241 171.128 842.697 171.128C844.153 171.128 845.329 171.648 846.225 172.688ZM844.929 179.552C845.489 178.816 845.769 177.856 845.769 176.672C845.769 175.488 845.489 174.536 844.929 173.816C844.385 173.08 843.641 172.712 842.697 172.712C841.753 172.712 841.001 173.08 840.441 173.816C839.897 174.536 839.625 175.488 839.625 176.672C839.625 177.856 839.897 178.816 840.441 179.552C841.001 180.272 841.753 180.632 842.697 180.632C843.641 180.632 844.385 180.272 844.929 179.552ZM850.03 182V171.344H851.83V172.688C852.166 172.24 852.606 171.872 853.15 171.584C853.71 171.28 854.318 171.128 854.974 171.128C856.158 171.128 857.078 171.48 857.734 172.184C858.39 172.888 858.718 173.832 858.718 175.016V182H856.894V175.304C856.894 174.536 856.694 173.928 856.294 173.48C855.91 173.016 855.326 172.784 854.542 172.784C853.918 172.784 853.358 172.976 852.862 173.36C852.366 173.728 852.022 174.2 851.83 174.776V182H850.03ZM868.756 181.28V180.488C868.468 180.888 868.052 181.232 867.508 181.52C866.98 181.792 866.404 181.928 865.78 181.928C864.292 181.928 863.124 181.4 862.276 180.344C861.428 179.288 861.004 178.016 861.004 176.528C861.004 175.024 861.428 173.752 862.276 172.712C863.124 171.656 864.292 171.128 865.78 171.128C866.404 171.128 866.98 171.264 867.508 171.536C868.052 171.808 868.468 172.144 868.756 172.544V171.344H870.58V181.16C870.58 182.856 870.14 184.136 869.26 185C868.396 185.88 867.252 186.32 865.828 186.32C864.548 186.32 863.508 186.008 862.708 185.384C861.924 184.76 861.444 183.896 861.268 182.792H863.044C863.348 184.12 864.276 184.784 865.828 184.784C867.78 184.784 868.756 183.616 868.756 181.28ZM868.756 178.64V174.392C868.148 173.288 867.244 172.736 866.044 172.736C865.052 172.736 864.268 173.088 863.692 173.792C863.132 174.496 862.852 175.408 862.852 176.528C862.852 177.648 863.132 178.56 863.692 179.264C864.268 179.952 865.052 180.296 866.044 180.296C867.244 180.296 868.148 179.744 868.756 178.64ZM879.596 179.312V172.88H877.868V171.344H879.596V168.536H881.396V171.344H883.964V172.88H881.396V179.12C881.396 180.112 881.868 180.608 882.812 180.608C883.308 180.608 883.772 180.464 884.204 180.176V181.856C883.756 182.096 883.196 182.216 882.524 182.216C881.628 182.216 880.916 181.976 880.388 181.496C879.86 181 879.596 180.272 879.596 179.312ZM888.51 171.344V182H886.71V171.344H888.51ZM888.414 167.312C888.654 167.536 888.774 167.808 888.774 168.128C888.774 168.448 888.654 168.72 888.414 168.944C888.19 169.168 887.918 169.28 887.598 169.28C887.278 169.28 887.006 169.168 886.782 168.944C886.558 168.72 886.446 168.448 886.446 168.128C886.446 167.808 886.558 167.536 886.782 167.312C887.006 167.088 887.278 166.976 887.598 166.976C887.918 166.976 888.19 167.088 888.414 167.312ZM899.285 172.832C900.085 171.696 901.165 171.128 902.525 171.128C903.597 171.128 904.421 171.472 904.997 172.16C905.589 172.848 905.885 173.776 905.885 174.944V182H904.061V175.232C904.061 174.464 903.893 173.864 903.557 173.432C903.221 172.984 902.717 172.76 902.045 172.76C901.501 172.76 901.013 172.936 900.581 173.288C900.149 173.624 899.853 174.08 899.693 174.656V182H897.893V175.232C897.893 174.464 897.725 173.864 897.389 173.432C897.053 172.984 896.549 172.76 895.877 172.76C895.333 172.76 894.845 172.936 894.413 173.288C893.981 173.624 893.685 174.08 893.525 174.656V182H891.725V171.344H893.525V172.592C894.133 171.616 895.093 171.128 896.405 171.128C897.749 171.128 898.709 171.696 899.285 172.832ZM915.648 178.808H917.352C917.16 179.848 916.688 180.68 915.936 181.304C915.184 181.912 914.224 182.216 913.056 182.216C911.6 182.216 910.416 181.712 909.504 180.704C908.608 179.68 908.16 178.344 908.16 176.696C908.16 175.08 908.608 173.752 909.504 172.712C910.4 171.656 911.568 171.128 913.008 171.128C914.432 171.128 915.536 171.608 916.32 172.568C917.104 173.512 917.496 174.776 917.496 176.36V177.008H909.96C909.976 178.128 910.264 179.024 910.824 179.696C911.4 180.352 912.144 180.68 913.056 180.68C913.728 180.68 914.288 180.52 914.736 180.2C915.2 179.864 915.504 179.4 915.648 178.808ZM913.032 172.664C912.232 172.664 911.56 172.928 911.016 173.456C910.472 173.984 910.136 174.712 910.008 175.64H915.672C915.656 174.792 915.424 174.088 914.976 173.528C914.528 172.952 913.88 172.664 913.032 172.664ZM925.698 179.312V172.88H923.97V171.344H925.698V168.536H927.498V171.344H930.066V172.88H927.498V179.12C927.498 180.112 927.97 180.608 928.914 180.608C929.41 180.608 929.874 180.464 930.306 180.176V181.856C929.858 182.096 929.298 182.216 928.626 182.216C927.73 182.216 927.018 181.976 926.49 181.496C925.962 181 925.698 180.272 925.698 179.312ZM940.35 172.688C941.262 173.712 941.718 175.04 941.718 176.672C941.718 178.304 941.262 179.64 940.35 180.68C939.454 181.704 938.278 182.216 936.822 182.216C935.366 182.216 934.182 181.704 933.27 180.68C932.374 179.64 931.926 178.304 931.926 176.672C931.926 175.04 932.374 173.712 933.27 172.688C934.182 171.648 935.366 171.128 936.822 171.128C938.278 171.128 939.454 171.648 940.35 172.688ZM939.054 179.552C939.614 178.816 939.894 177.856 939.894 176.672C939.894 175.488 939.614 174.536 939.054 173.816C938.51 173.08 937.766 172.712 936.822 172.712C935.878 172.712 935.126 173.08 934.566 173.816C934.022 174.536 933.75 175.488 933.75 176.672C933.75 177.856 934.022 178.816 934.566 179.552C935.126 180.272 935.878 180.632 936.822 180.632C937.766 180.632 938.51 180.272 939.054 179.552ZM956.436 181.28V180.488C956.148 180.888 955.732 181.232 955.188 181.52C954.66 181.792 954.084 181.928 953.46 181.928C951.972 181.928 950.804 181.4 949.956 180.344C949.108 179.288 948.684 178.016 948.684 176.528C948.684 175.024 949.108 173.752 949.956 172.712C950.804 171.656 951.972 171.128 953.46 171.128C954.084 171.128 954.66 171.264 955.188 171.536C955.732 171.808 956.148 172.144 956.436 172.544V171.344H958.26V181.16C958.26 182.856 957.82 184.136 956.94 185C956.076 185.88 954.932 186.32 953.508 186.32C952.228 186.32 951.188 186.008 950.388 185.384C949.604 184.76 949.124 183.896 948.948 182.792H950.724C951.028 184.12 951.956 184.784 953.508 184.784C955.46 184.784 956.436 183.616 956.436 181.28ZM956.436 178.64V174.392C955.828 173.288 954.924 172.736 953.724 172.736C952.732 172.736 951.948 173.088 951.372 173.792C950.812 174.496 950.532 175.408 950.532 176.528C950.532 177.648 950.812 178.56 951.372 179.264C951.948 179.952 952.732 180.296 953.724 180.296C954.924 180.296 955.828 179.744 956.436 178.64ZM968.195 178.808H969.899C969.707 179.848 969.235 180.68 968.483 181.304C967.731 181.912 966.771 182.216 965.603 182.216C964.147 182.216 962.963 181.712 962.051 180.704C961.155 179.68 960.707 178.344 960.707 176.696C960.707 175.08 961.155 173.752 962.051 172.712C962.947 171.656 964.115 171.128 965.555 171.128C966.979 171.128 968.083 171.608 968.867 172.568C969.651 173.512 970.043 174.776 970.043 176.36V177.008H962.507C962.523 178.128 962.811 179.024 963.371 179.696C963.947 180.352 964.691 180.68 965.603 180.68C966.275 180.68 966.835 180.52 967.283 180.2C967.747 179.864 968.051 179.4 968.195 178.808ZM965.579 172.664C964.779 172.664 964.107 172.928 963.563 173.456C963.019 173.984 962.683 174.712 962.555 175.64H968.219C968.203 174.792 967.971 174.088 967.523 173.528C967.075 172.952 966.427 172.664 965.579 172.664ZM972.948 179.312V172.88H971.22V171.344H972.948V168.536H974.748V171.344H977.316V172.88H974.748V179.12C974.748 180.112 975.22 180.608 976.164 180.608C976.66 180.608 977.124 180.464 977.556 180.176V181.856C977.108 182.096 976.548 182.216 975.876 182.216C974.98 182.216 974.268 181.976 973.74 181.496C973.212 181 972.948 180.272 972.948 179.312ZM990.686 166.424V168.056C990.382 167.864 990.006 167.768 989.558 167.768C989.014 167.768 988.582 167.936 988.262 168.272C987.958 168.608 987.806 169.088 987.806 169.712V171.344H990.206V172.88H987.806V182H986.03V172.88H984.23V171.344H986.03V169.568C986.03 168.528 986.334 167.704 986.942 167.096C987.55 166.488 988.334 166.184 989.294 166.184C989.838 166.184 990.302 166.264 990.686 166.424ZM999.787 172.688C1000.7 173.712 1001.16 175.04 1001.16 176.672C1001.16 178.304 1000.7 179.64 999.787 180.68C998.891 181.704 997.715 182.216 996.259 182.216C994.803 182.216 993.619 181.704 992.707 180.68C991.811 179.64 991.363 178.304 991.363 176.672C991.363 175.04 991.811 173.712 992.707 172.688C993.619 171.648 994.803 171.128 996.259 171.128C997.715 171.128 998.891 171.648 999.787 172.688ZM998.491 179.552C999.051 178.816 999.331 177.856 999.331 176.672C999.331 175.488 999.051 174.536 998.491 173.816C997.947 173.08 997.203 172.712 996.259 172.712C995.315 172.712 994.563 173.08 994.003 173.816C993.459 174.536 993.187 175.488 993.187 176.672C993.187 177.856 993.459 178.816 994.003 179.552C994.563 180.272 995.315 180.632 996.259 180.632C997.203 180.632 997.947 180.272 998.491 179.552ZM1011.3 172.688C1012.21 173.712 1012.66 175.04 1012.66 176.672C1012.66 178.304 1012.21 179.64 1011.3 180.68C1010.4 181.704 1009.22 182.216 1007.77 182.216C1006.31 182.216 1005.13 181.704 1004.22 180.68C1003.32 179.64 1002.87 178.304 1002.87 176.672C1002.87 175.04 1003.32 173.712 1004.22 172.688C1005.13 171.648 1006.31 171.128 1007.77 171.128C1009.22 171.128 1010.4 171.648 1011.3 172.688ZM1010 179.552C1010.56 178.816 1010.84 177.856 1010.84 176.672C1010.84 175.488 1010.56 174.536 1010 173.816C1009.46 173.08 1008.71 172.712 1007.77 172.712C1006.82 172.712 1006.07 173.08 1005.51 173.816C1004.97 174.536 1004.7 175.488 1004.7 176.672C1004.7 177.856 1004.97 178.816 1005.51 179.552C1006.07 180.272 1006.82 180.632 1007.77 180.632C1008.71 180.632 1009.46 180.272 1010 179.552ZM1022.18 182V180.752C1021.89 181.168 1021.48 181.52 1020.93 181.808C1020.39 182.08 1019.8 182.216 1019.18 182.216C1017.68 182.216 1016.5 181.688 1015.65 180.632C1014.8 179.576 1014.38 178.256 1014.38 176.672C1014.38 175.104 1014.8 173.792 1015.65 172.736C1016.5 171.664 1017.68 171.128 1019.18 171.128C1019.8 171.128 1020.39 171.272 1020.93 171.56C1021.48 171.832 1021.89 172.176 1022.18 172.592V166.4H1024V182H1022.18ZM1022.18 178.832V174.512C1021.91 173.968 1021.52 173.544 1021.03 173.24C1020.55 172.92 1020.02 172.76 1019.44 172.76C1018.45 172.76 1017.66 173.128 1017.07 173.864C1016.49 174.584 1016.2 175.52 1016.2 176.672C1016.2 177.824 1016.49 178.768 1017.07 179.504C1017.66 180.224 1018.45 180.584 1019.44 180.584C1020.02 180.584 1020.55 180.432 1021.03 180.128C1021.52 179.808 1021.91 179.376 1022.18 178.832ZM1026.71 181.76C1026.47 181.504 1026.35 181.192 1026.35 180.824C1026.35 180.456 1026.47 180.144 1026.71 179.888C1026.97 179.632 1027.28 179.504 1027.65 179.504C1028 179.504 1028.3 179.632 1028.54 179.888C1028.79 180.144 1028.92 180.456 1028.92 180.824C1028.92 181.192 1028.79 181.504 1028.54 181.76C1028.3 182 1028 182.12 1027.65 182.12C1027.28 182.12 1026.97 182 1026.71 181.76Z" fill="white"/>
<mask id="mask0_203_7237" style="mask-type:alpha" maskUnits="userSpaceOnUse" x="1162" y="163" width="38" height="38">
<rect x="1162" y="163" width="38" height="38" fill="#D9D9D9"/>
</mask>
<g mask="url(#mask0_203_7237)">
<path d="M1185.75 189.917L1188.92 183.583H1182.58V172.5H1193.67V183.583L1190.5 189.917H1185.75ZM1171.5 189.917L1174.67 183.583H1168.33V172.5H1179.42V183.583L1176.25 189.917H1171.5Z" fill="#CCD6F6"/>
</g>
<mask id="mask1_203_7237" style="mask-type:alpha" maskUnits="userSpaceOnUse" x="182" y="87" width="39" height="39">
<rect x="219.99" y="125.852" width="38" height="38" transform="rotate(-178.701 219.99 125.852)" fill="#D9D9D9"/>
</mask>
<g mask="url(#mask1_203_7237)">
<path d="M196.857 98.4037L193.547 104.664L199.879 104.807L199.628 115.888L188.547 115.636L188.798 104.556L192.108 98.296L196.857 98.4037ZM211.103 98.7268L207.794 104.987L214.125 105.13L213.874 116.211L202.793 115.959L203.045 104.879L206.354 98.6191L211.103 98.7268Z" fill="#CCD6F6"/>
</g>
</g>
<defs>
<filter id="filter0_d_203_7237" x="0" y="0" width="1420" height="324" filterUnits="userSpaceOnUse" color-interpolation-filters="sRGB">
<feFlood flood-opacity="0" result="BackgroundImageFix"/>
<feColorMatrix in="SourceAlpha" type="matrix" values="0 0 0 0 0 0 0 0 0 0 0 0 0 0 0 0 0 0 127 0" result="hardAlpha"/>
<feOffset dy="8"/>
<feGaussianBlur stdDeviation="25"/>
<feComposite in2="hardAlpha" operator="out"/>
<feColorMatrix type="matrix" values="0 0 0 0 0 0 0 0 0 0 0 0 0 0 0 0 0 0 0.25 0"/>
<feBlend mode="normal" in2="BackgroundImageFix" result="effect1_dropShadow_203_7237"/>
<feBlend mode="normal" in="SourceGraphic" in2="effect1_dropShadow_203_7237" result="shape"/>
</filter>
</defs>
</svg>
