<svg width="41" height="41" viewBox="0 0 41 41" fill="none" xmlns="http://www.w3.org/2000/svg">
<g id="around 1" clip-path="url(#clip0_611_7544)">
<g id="Group">
<path id="Vector" opacity="0.937" fill-rule="evenodd" clip-rule="evenodd" d="M18.6982 -0.0400391C19.8727 -0.0400391 21.0471 -0.0400391 22.2216 -0.0400391C29.623 0.889019 35.0817 4.626 38.5976 11.1709C41.0202 16.3996 41.2872 21.7382 39.3983 27.1865C36.9862 33.2288 32.7021 37.2995 26.5458 39.3984C22.1786 40.7 17.841 40.6067 13.5331 39.1182C11.5907 40.0017 9.57541 40.6155 7.48721 40.96C6.65974 40.96 5.83226 40.96 5.00479 40.96C2.15634 40.4464 0.594814 38.7381 0.320221 35.835C0.250005 33.6499 0.623703 31.5413 1.44131 29.5088C3.42867 24.7242 6.15133 20.4266 9.60928 16.6162C10.0056 16.8657 10.3659 17.1593 10.6903 17.4971C7.81665 20.8656 5.40097 24.5492 3.44327 28.5479C2.55808 30.4027 1.99753 32.3512 1.76163 34.3936C1.62621 35.6083 1.83975 36.7561 2.40225 37.8369C3.11113 38.7856 4.05872 39.3329 5.24503 39.4785C7.45727 39.6126 9.56596 39.2123 11.5712 38.2773C8.22425 36.6294 5.52831 34.2404 3.48331 31.1104C3.86992 30.8236 4.27031 30.5566 4.68448 30.3096C8.76534 36.1672 14.3976 39.01 21.581 38.8379C29.404 38.0583 34.8626 34.0677 37.9569 26.8662C38.899 24.3902 39.3127 21.8277 39.1982 19.1787C38.2368 19.1921 37.2759 19.1787 36.3153 19.1387C36.2086 19.0853 36.1018 19.0319 35.995 18.9785C35.1142 17.457 34.2333 15.9355 33.3524 14.4141C32.258 14.3607 31.1637 14.3607 30.0692 14.4141C29.6524 14.9672 29.2654 15.5411 28.9081 16.1357C28.764 16.2812 28.5905 16.3747 28.3876 16.416C27.3154 16.49 26.2477 16.4633 25.1845 16.3359C25.1178 16.2692 25.051 16.2024 24.9843 16.1357C24.8526 14.301 24.8258 12.4592 24.9042 10.6104C24.9414 10.4958 25.0082 10.4024 25.1044 10.3301C26.5119 10.2254 27.9266 10.1721 29.3485 10.1699C30.2317 9.25999 31.1393 8.37914 32.0712 7.52734C32.8186 7.50065 33.566 7.47396 34.3134 7.44727C31.2025 4.16321 27.3988 2.1746 22.9023 1.48145C22.8756 1.77507 22.8488 2.06868 22.8222 2.3623C22.66 2.59759 22.4332 2.74441 22.1415 2.80273C21.3704 3.00219 20.5962 3.18905 19.8192 3.36328C19.0434 3.92663 18.2293 4.42045 17.3769 4.84473C15.9812 4.20031 14.5931 3.53298 13.2128 2.84277C9.28897 4.538 6.25932 7.23397 4.12393 10.9307C4.9762 12.2482 5.77699 13.5961 6.52628 14.9746C6.46809 15.0866 6.42805 15.2068 6.40616 15.335C5.79471 16.0266 5.15408 16.6939 4.48428 17.3369C4.48105 18.3055 4.42766 19.2665 4.32413 20.2197C4.21851 20.3788 4.0717 20.4723 3.8837 20.5C3.16349 20.54 2.44279 20.5533 1.72159 20.54C1.73532 21.3715 1.80205 22.1989 1.92178 23.0225C2.10982 23.9612 2.31002 24.8955 2.52237 25.8252C2.12344 25.9314 1.72305 26.0381 1.3212 26.1455C1.15017 26.0716 1.05675 25.9382 1.04092 25.7451C-0.825024 18.3344 0.77654 11.7947 5.84561 6.12598C9.38458 2.53485 13.6688 0.479512 18.6982 -0.0400391ZM20.2196 1.32129C20.6194 1.36126 21.0198 1.4013 21.4208 1.44141C20.6512 1.66721 19.8771 1.88075 19.0985 2.08203C18.5004 2.45335 17.9132 2.84039 17.3368 3.24316C16.6161 2.88281 15.8954 2.52246 15.1747 2.16211C16.83 1.66085 18.5116 1.38058 20.2196 1.32129ZM21.1005 6.28613C21.1806 6.28613 21.2607 6.28613 21.3407 6.28613C21.2001 7.07443 20.8665 7.76844 20.3398 8.36816C18.2066 10.4212 16.0979 12.5032 14.0136 14.6143C13.9859 14.7518 13.9458 14.8853 13.8935 15.0146C14.0945 15.8451 14.3079 16.6727 14.5341 17.4971C14.4273 17.6572 14.2939 17.7907 14.1337 17.8975C13.5931 17.0566 13.0726 16.2024 12.5722 15.335C11.7384 14.7377 10.8709 14.1905 9.96964 13.6934C9.8291 13.6357 9.76231 13.5423 9.76944 13.4131C9.88067 13.2748 10.0142 13.168 10.1698 13.0928C10.8488 13.2725 11.5295 13.446 12.2118 13.6133C12.5157 13.6803 12.8093 13.6536 13.0927 13.5332C15.2548 11.3711 17.4169 9.20898 19.579 7.04688C20.0497 6.70473 20.5569 6.45115 21.1005 6.28613ZM10.0497 7.64746C11.8077 8.17558 13.5694 8.69608 15.3349 9.20898C15.0534 9.50383 14.7597 9.78411 14.454 10.0498C12.8938 9.36305 11.3456 8.65572 9.80948 7.92773C9.90637 7.84453 9.98645 7.7511 10.0497 7.64746ZM32.6317 8.92871C33.5931 8.91534 34.554 8.92871 35.5146 8.96875C37.4505 11.5747 38.625 14.4975 39.038 17.7373C38.3435 17.7506 37.6494 17.7373 36.956 17.6973C36.0783 16.1956 35.2108 14.6875 34.3534 13.1729C34.2529 13.1159 34.1596 13.0492 34.0732 12.9727C32.525 12.9192 30.9768 12.9192 29.4286 12.9727C29.2585 13.0625 29.1118 13.1826 28.9882 13.333C28.6378 13.8871 28.2774 14.4342 27.9071 14.9746C27.374 15.0146 26.8401 15.0279 26.3056 15.0146C26.3056 13.8936 26.3056 12.7725 26.3056 11.6514C27.5071 11.6647 28.7082 11.6514 29.9091 11.6113C30.8571 10.7567 31.7647 9.8625 32.6317 8.92871ZM18.2978 12.3721C18.3847 12.3817 18.4381 12.4351 18.4579 12.5322C18.9416 14.2099 19.4487 15.8782 19.9794 17.5371C19.8593 17.6572 19.7392 17.7773 19.619 17.8975C18.9384 16.3226 18.2577 14.7477 17.5771 13.1729C17.8191 12.9043 18.0593 12.6374 18.2978 12.3721ZM3.32315 12.4521C3.84127 13.2524 4.34843 14.0666 4.84464 14.8945C4.21486 15.4975 3.61427 16.1249 3.04288 16.7764C3.00285 17.55 2.98951 18.3241 3.00284 19.0986C2.57576 19.0986 2.14867 19.0986 1.72159 19.0986C1.86876 16.7875 2.4026 14.572 3.32315 12.4521ZM24.9442 20.54C26.8402 20.5134 28.7354 20.54 30.6298 20.6201C31.257 21.8747 31.8844 23.1292 32.5116 24.3838C32.6253 24.4607 32.7454 24.5274 32.872 24.584C33.3812 24.5975 33.8884 24.6376 34.3935 24.7041C33.7395 25.6917 33.0855 26.6794 32.4315 27.667C32.4049 28.5745 32.3781 29.4821 32.3515 30.3896C31.5907 31.1504 30.83 31.9111 30.0692 32.6719C29.2689 32.7119 28.4682 32.7252 27.6669 32.7119C27.6803 30.1493 27.6669 27.5868 27.6269 25.0244C27.5334 24.8242 27.3866 24.6774 27.1864 24.584C26.4395 24.5439 25.6921 24.5307 24.9442 24.5439C24.9442 23.2093 24.9442 21.8747 24.9442 20.54ZM11.2509 23.9033C12.0521 23.89 12.8529 23.9033 13.6532 23.9434C14.3229 24.6398 15.017 25.3072 15.7353 25.9453C16.9629 25.9854 18.1907 25.9987 19.4189 25.9854C19.4321 26.7599 19.4189 27.534 19.3788 28.3076C18.2844 29.1885 17.19 30.0693 16.0956 30.9502C15.9933 31.6628 15.9399 32.3835 15.9355 33.1123C15.5351 33.406 15.1347 33.6995 14.7343 33.9932C14.7329 31.8508 14.6795 29.7154 14.5741 27.5869C14.4769 27.4629 14.3568 27.3695 14.2138 27.3066C13.2265 27.2666 12.2389 27.2532 11.2509 27.2666C11.2509 26.1455 11.2509 25.0244 11.2509 23.9033Z" fill="white"/>
</g>
<g id="Group_2">
<path id="Vector_2" opacity="0.935" fill-rule="evenodd" clip-rule="evenodd" d="M21.2607 4.76461C21.662 4.75133 22.0624 4.76467 22.4619 4.80465C22.8154 5.0218 22.9489 5.34211 22.8623 5.76559C22.8047 6.9261 22.4443 7.98046 21.7812 8.92868C21.0709 9.71897 20.3368 10.4797 19.5791 11.2109C20.2063 13.3063 20.8336 15.4016 21.4609 17.497C21.5263 17.7744 21.4996 18.0414 21.3808 18.2978C20.8603 18.7649 20.3398 19.2321 19.8193 19.6992C19.487 19.8709 19.1667 19.8575 18.8584 19.6591C18.0364 17.8741 17.2224 16.0857 16.416 14.2939C16.0449 14.6107 15.7379 14.9711 15.4951 15.375C15.6882 16.161 15.8751 16.9485 16.0556 17.7373C16.0346 17.9397 15.9679 18.1265 15.8554 18.2978C15.3591 18.8209 14.8386 19.3147 14.2939 19.7793C14.0165 19.8447 13.7495 19.8179 13.4931 19.6992C12.7832 18.5753 12.0892 17.4409 11.4111 16.2959C10.3033 15.5951 9.18219 14.9144 8.04781 14.2539C7.78122 13.9226 7.74118 13.5622 7.92769 13.1728C8.45068 12.6231 8.99785 12.1026 9.56929 11.6113C9.78286 11.5579 9.99635 11.5579 10.2099 11.6113C10.904 11.7848 11.5979 11.9583 12.2919 12.1318C12.6869 11.8706 13.034 11.5503 13.333 11.1709C11.547 10.3581 9.75859 9.54392 7.96773 8.72848C7.77215 8.40401 7.7588 8.07032 7.92769 7.72751C8.42153 7.23369 8.91529 6.73988 9.40913 6.24606C9.55856 6.16721 9.71872 6.12717 9.8896 6.12594C12.0918 6.71763 14.2806 7.35826 16.456 8.04782C17.1889 7.35497 17.9096 6.6476 18.6181 5.92575C19.4263 5.35885 20.3071 4.9718 21.2607 4.76461ZM21.1005 6.2861C20.557 6.45112 20.0498 6.7047 19.5791 7.04684C17.4169 9.20895 15.2548 11.3711 13.0927 13.5332C12.8093 13.6536 12.5158 13.6803 12.2119 13.6132C11.5295 13.446 10.8489 13.2725 10.1699 13.0927C10.0142 13.1679 9.88071 13.2748 9.76949 13.4131C9.76236 13.5422 9.82914 13.6357 9.96968 13.6933C10.871 14.1905 11.7384 14.7377 12.5722 15.3349C13.0726 16.2024 13.5931 17.0566 14.1337 17.8974C14.2939 17.7907 14.4274 17.6572 14.5341 17.497C14.308 16.6726 14.0945 15.8451 13.8935 15.0146C13.9459 14.8853 13.9859 14.7518 14.0136 14.6142C16.0979 12.5032 18.2066 10.4212 20.3398 8.36813C20.8666 7.7684 21.2002 7.0744 21.3408 6.2861C21.2607 6.2861 21.1806 6.2861 21.1005 6.2861ZM10.0498 7.64743C9.9865 7.75106 9.90642 7.84449 9.80952 7.9277C11.3457 8.65569 12.8939 9.36302 14.4541 10.0498C14.7598 9.78407 15.0534 9.5038 15.3349 9.20895C13.5694 8.69605 11.8077 8.17554 10.0498 7.64743ZM18.2978 12.372C18.0593 12.6373 17.8191 12.9043 17.5771 13.1728C18.2578 14.7477 18.9384 16.3225 19.6191 17.8974C19.7392 17.7773 19.8593 17.6572 19.9794 17.5371C19.4488 15.8782 18.9416 14.2099 18.458 12.5322C18.4382 12.4351 18.3848 12.3816 18.2978 12.372Z" fill="white"/>
</g>
<g id="Group_3">
<path id="Vector_3" opacity="0.944" fill-rule="evenodd" clip-rule="evenodd" d="M23.9033 19.0986C26.3859 19.0853 28.8683 19.0986 31.3506 19.1387C31.4652 19.1759 31.5586 19.2427 31.6309 19.3389C32.2581 20.5935 32.8855 21.848 33.5127 23.1026C34.3656 23.1692 35.2198 23.2092 36.0752 23.2227C36.5454 23.4642 36.6656 23.8245 36.4356 24.3037C35.5814 25.585 34.7273 26.8662 33.8731 28.1475C33.8683 29.1407 33.8148 30.1284 33.7129 31.1104C32.7119 32.1113 31.711 33.1123 30.71 34.1133C29.3487 34.1667 27.9873 34.1667 26.626 34.1133C26.5114 34.0761 26.418 34.0093 26.3457 33.9131C26.2267 31.2775 26.1867 28.6349 26.2256 25.9854C25.4778 25.9987 24.7303 25.9854 23.9834 25.9453C23.7881 25.8833 23.6412 25.7632 23.543 25.585C23.4896 23.5564 23.4896 21.5277 23.543 19.499C23.6251 19.3239 23.7452 19.1904 23.9033 19.0986ZM24.9444 20.5401C24.9444 21.8747 24.9444 23.2093 24.9444 24.544C25.6922 24.5307 26.4397 24.544 27.1865 24.584C27.3867 24.6774 27.5335 24.8242 27.627 25.0244C27.667 27.5868 27.6804 30.1493 27.667 32.7119C28.4683 32.7252 29.2691 32.7119 30.0694 32.6719C30.8301 31.9111 31.5908 31.1504 32.3516 30.3897C32.3782 29.4821 32.405 28.5745 32.4317 27.667C33.0857 26.6794 33.7396 25.6917 34.3936 24.7041C33.8885 24.6376 33.3813 24.5975 32.8721 24.584C32.7455 24.5274 32.6254 24.4607 32.5117 24.3838C31.8845 23.1292 31.2572 21.8747 30.6299 20.6201C28.7355 20.5401 26.8403 20.5134 24.9444 20.5401Z" fill="white"/>
</g>
<g id="Group_4">
<path id="Vector_4" opacity="0.941" fill-rule="evenodd" clip-rule="evenodd" d="M10.3701 22.4619C11.625 22.4486 12.8795 22.4619 14.1338 22.502C14.9007 23.1083 15.6214 23.7757 16.2959 24.5039C17.6572 24.5306 19.0186 24.5573 20.3799 24.584C20.5229 24.6469 20.643 24.7402 20.7403 24.8643C20.8302 25.5525 20.8702 26.2465 20.8604 26.9463C20.847 27.5603 20.8337 28.1741 20.8203 28.7881C20.7826 28.9279 20.7292 29.0614 20.6602 29.1885C19.5925 30.0427 18.5247 30.8968 17.4571 31.751C17.4304 32.3916 17.4036 33.0322 17.377 33.6729C17.3236 33.7796 17.2702 33.8864 17.2168 33.9932C16.262 34.6908 15.3145 35.3981 14.374 36.1152C13.9379 36.3249 13.5776 36.2314 13.293 35.835C13.2529 33.4595 13.2396 31.0839 13.2529 28.708C12.2649 28.7214 11.2773 28.708 10.2901 28.668C10.0899 28.5745 9.94308 28.4277 9.84963 28.2276C9.79622 26.4925 9.79622 24.7575 9.84963 23.0225C9.92899 22.7431 10.1025 22.5562 10.3701 22.4619ZM11.251 23.9033C11.251 25.0244 11.251 26.1455 11.251 27.2666C12.239 27.2532 13.2266 27.2666 14.2139 27.3067C14.3569 27.3695 14.477 27.4629 14.5742 27.5869C14.6796 29.7154 14.733 31.8508 14.7344 33.9932C15.1348 33.6995 15.5352 33.406 15.9356 33.1123C15.94 32.3835 15.9934 31.6628 16.0957 30.9502C17.1902 30.0693 18.2845 29.1885 19.3789 28.3076C19.419 27.534 19.4323 26.7599 19.419 25.9854C18.1908 25.9987 16.963 25.9854 15.7354 25.9453C15.0171 25.3072 14.323 24.6398 13.6533 23.9434C12.853 23.9033 12.0523 23.89 11.251 23.9033Z" fill="white"/>
</g>
</g>
<defs>
<clipPath id="clip0_611_7544">
<rect width="41" height="41" fill="white"/>
</clipPath>
</defs>
</svg>
